M48
; DRILL file {KiCad 7.0.11} date Tue Feb 27 10:57:54 2024
; FORMAT={-:-/ absolute / metric / decimal}
; #@! TF.CreationDate,2024-02-27T10:57:54-05:00
; #@! TF.GenerationSoftware,Kicad,Pcbnew,7.0.11
; #@! TF.FileFunction,NonPlated,1,2,NPTH
FMAT,2
METRIC
; #@! TA.AperFunction,NonPlated,NPTH,ComponentDrill
T1C1.700
; #@! TA.AperFunction,NonPlated,NPTH,ComponentDrill
T2C4.000
%
G90
G05
T1
X87.63Y-81.28
X87.63Y-100.33
X97.79Y-81.28
X97.79Y-100.33
X106.68Y-81.28
X106.68Y-100.33
X116.84Y-81.28
X116.84Y-100.33
X125.73Y-81.28
X125.73Y-100.33
X135.89Y-81.28
X135.89Y-100.33
T2
X92.71Y-81.28
X92.71Y-81.28
X92.71Y-100.33
X92.71Y-100.33
X111.76Y-81.28
X111.76Y-81.28
X111.76Y-100.33
X111.76Y-100.33
X130.81Y-81.28
X130.81Y-81.28
X130.81Y-100.33
X130.81Y-100.33
M30
