%TF.GenerationSoftware,KiCad,Pcbnew,7.0.11*%
%TF.CreationDate,2024-02-27T10:57:45-05:00*%
%TF.ProjectId,MacropadPCB,4d616372-6f70-4616-9450-43422e6b6963,rev?*%
%TF.SameCoordinates,Original*%
%TF.FileFunction,Copper,L1,Top*%
%TF.FilePolarity,Positive*%
%FSLAX46Y46*%
G04 Gerber Fmt 4.6, Leading zero omitted, Abs format (unit mm)*
G04 Created by KiCad (PCBNEW 7.0.11) date 2024-02-27 10:57:45*
%MOMM*%
%LPD*%
G01*
G04 APERTURE LIST*
%TA.AperFunction,ComponentPad*%
%ADD10C,2.200000*%
%TD*%
%TA.AperFunction,ComponentPad*%
%ADD11R,1.600000X1.600000*%
%TD*%
%TA.AperFunction,ComponentPad*%
%ADD12O,1.600000X1.600000*%
%TD*%
%TA.AperFunction,ComponentPad*%
%ADD13R,2.000000X2.000000*%
%TD*%
%TA.AperFunction,ComponentPad*%
%ADD14C,2.000000*%
%TD*%
%TA.AperFunction,ComponentPad*%
%ADD15R,2.000000X3.200000*%
%TD*%
%TA.AperFunction,ViaPad*%
%ADD16C,0.800000*%
%TD*%
%TA.AperFunction,Conductor*%
%ADD17C,0.250000*%
%TD*%
G04 APERTURE END LIST*
D10*
%TO.P,SW5,1,A*%
%TO.N,Net-(D5-A)*%
X114300000Y-95250000D03*
%TO.P,SW5,2,B*%
%TO.N,Col 1*%
X107950000Y-97790000D03*
%TD*%
%TO.P,SW1,1,A*%
%TO.N,Net-(D2-A)*%
X114300000Y-76200000D03*
%TO.P,SW1,2,B*%
%TO.N,Col 1*%
X107950000Y-78740000D03*
%TD*%
D11*
%TO.P,D2,1,K*%
%TO.N,Row 0*%
X102108000Y-75438000D03*
D12*
%TO.P,D2,2,A*%
%TO.N,Net-(D2-A)*%
X102108000Y-83058000D03*
%TD*%
D10*
%TO.P,SW3,1,A*%
%TO.N,Net-(D3-A)*%
X133350000Y-76200000D03*
%TO.P,SW3,2,B*%
%TO.N,Col 2*%
X127000000Y-78740000D03*
%TD*%
D13*
%TO.P,SW10,A,A*%
%TO.N,ENC_A1*%
X133300000Y-54700000D03*
D14*
%TO.P,SW10,B,B*%
%TO.N,ENC_B1*%
X128300000Y-54700000D03*
%TO.P,SW10,C,C*%
%TO.N,GND*%
X130800000Y-54700000D03*
D15*
%TO.P,SW10,MP*%
%TO.N,N/C*%
X136400000Y-62200000D03*
X125200000Y-62200000D03*
D14*
%TO.P,SW10,S1,S1*%
%TO.N,Col 2*%
X128300000Y-69200000D03*
%TO.P,SW10,S2,S2*%
%TO.N,Net-(D10-A)*%
X133300000Y-69200000D03*
%TD*%
D12*
%TO.P,D1,2,A*%
%TO.N,Net-(D1-A)*%
X81788000Y-83058000D03*
D11*
%TO.P,D1,1,K*%
%TO.N,Row 0*%
X81788000Y-75438000D03*
%TD*%
D10*
%TO.P,SW4,1,A*%
%TO.N,Net-(D4-A)*%
X95250000Y-95250000D03*
%TO.P,SW4,2,B*%
%TO.N,Col 0*%
X88900000Y-97790000D03*
%TD*%
D13*
%TO.P,SW11,A,A*%
%TO.N,ENC_A0*%
X95200000Y-54175000D03*
D14*
%TO.P,SW11,B,B*%
%TO.N,ENC_B0*%
X90200000Y-54175000D03*
%TO.P,SW11,C,C*%
%TO.N,GND*%
X92700000Y-54175000D03*
D15*
%TO.P,SW11,MP*%
%TO.N,N/C*%
X98300000Y-61675000D03*
X87100000Y-61675000D03*
D14*
%TO.P,SW11,S1,S1*%
%TO.N,Col 0*%
X90200000Y-68675000D03*
%TO.P,SW11,S2,S2*%
%TO.N,Net-(D11-A)*%
X95200000Y-68675000D03*
%TD*%
D11*
%TO.P,D10,1,K*%
%TO.N,Row 2*%
X139700000Y-58440000D03*
D12*
%TO.P,D10,2,A*%
%TO.N,Net-(D10-A)*%
X139700000Y-66060000D03*
%TD*%
D11*
%TO.P,D4,1,K*%
%TO.N,Row 1*%
X82804000Y-94234000D03*
D12*
%TO.P,D4,2,A*%
%TO.N,Net-(D4-A)*%
X82804000Y-101854000D03*
%TD*%
D11*
%TO.P,D11,1,K*%
%TO.N,Row 2*%
X82804000Y-58440000D03*
D12*
%TO.P,D11,2,A*%
%TO.N,Net-(D11-A)*%
X82804000Y-66060000D03*
%TD*%
D11*
%TO.P,D5,1,K*%
%TO.N,Row 1*%
X101825000Y-94234000D03*
D12*
%TO.P,D5,2,A*%
%TO.N,Net-(D5-A)*%
X101825000Y-101854000D03*
%TD*%
D11*
%TO.P,D3,1,K*%
%TO.N,Row 0*%
X121050000Y-75438000D03*
D12*
%TO.P,D3,2,A*%
%TO.N,Net-(D3-A)*%
X121050000Y-83058000D03*
%TD*%
D10*
%TO.P,SW2,1,A*%
%TO.N,Net-(D1-A)*%
X95250000Y-76200000D03*
%TO.P,SW2,2,B*%
%TO.N,Col 0*%
X88900000Y-78740000D03*
%TD*%
D11*
%TO.P,D6,1,K*%
%TO.N,Row 1*%
X120950000Y-94065000D03*
D12*
%TO.P,D6,2,A*%
%TO.N,Net-(D6-A)*%
X120950000Y-101685000D03*
%TD*%
D10*
%TO.P,SW6,1,A*%
%TO.N,Net-(D6-A)*%
X133350000Y-95250000D03*
%TO.P,SW6,2,B*%
%TO.N,Col 2*%
X127000000Y-97790000D03*
%TD*%
D16*
%TO.N,Row 1*%
X122436578Y-70229700D03*
X123440758Y-82211413D03*
%TO.N,Row 2*%
X116625000Y-58100000D03*
%TO.N,ENC_A1*%
X108500000Y-59575000D03*
%TO.N,ENC_B1*%
X110025000Y-55650000D03*
%TO.N,GND*%
X117300000Y-48725000D03*
%TO.N,ENC_A0*%
X116525000Y-56600000D03*
%TO.N,Col 0*%
X116175000Y-54000000D03*
%TO.N,Col 2*%
X124275000Y-48975000D03*
%TD*%
D17*
%TO.N,Row 1*%
X123440758Y-82211413D02*
X123700000Y-81952171D01*
X123700000Y-81952171D02*
X123700000Y-71525000D01*
X123700000Y-71525000D02*
X122425000Y-70250000D01*
%TO.N,Row 0*%
X118075000Y-73725000D02*
X119788000Y-75438000D01*
X94025000Y-74100000D02*
X94500000Y-73625000D01*
X100422500Y-73752500D02*
X100450000Y-73725000D01*
X119788000Y-75438000D02*
X121412000Y-75438000D01*
X83000000Y-74100000D02*
X94025000Y-74100000D01*
X100295000Y-73625000D02*
X100422500Y-73752500D01*
X100422500Y-73752500D02*
X102108000Y-75438000D01*
X94500000Y-73625000D02*
X100295000Y-73625000D01*
X100450000Y-73725000D02*
X118075000Y-73725000D01*
X81788000Y-75312000D02*
X83000000Y-74100000D01*
X81788000Y-75438000D02*
X81788000Y-75312000D01*
%TO.N,Net-(D1-A)*%
X81788000Y-83058000D02*
X83525000Y-84795000D01*
X95250000Y-84350000D02*
X95250000Y-76200000D01*
X95475000Y-85025000D02*
X95700000Y-84800000D01*
X83525000Y-85025000D02*
X95475000Y-85025000D01*
X95700000Y-84800000D02*
X95250000Y-84350000D01*
X83525000Y-84795000D02*
X83525000Y-85025000D01*
%TO.N,Net-(D2-A)*%
X114350000Y-86875000D02*
X115000000Y-86225000D01*
X102108000Y-83058000D02*
X105925000Y-86875000D01*
X105925000Y-86875000D02*
X114350000Y-86875000D01*
X114300000Y-85525000D02*
X114300000Y-76200000D01*
X115000000Y-86225000D02*
X114300000Y-85525000D01*
%TO.N,Net-(D3-A)*%
X134100000Y-80575000D02*
X133350000Y-79825000D01*
X131200000Y-86750000D02*
X134100000Y-83850000D01*
X121412000Y-83058000D02*
X122858000Y-83058000D01*
X126550000Y-86750000D02*
X131200000Y-86750000D01*
X133350000Y-79825000D02*
X133350000Y-76200000D01*
X122858000Y-83058000D02*
X126550000Y-86750000D01*
X134100000Y-83850000D02*
X134100000Y-80575000D01*
%TO.N,Row 1*%
X119875000Y-92625000D02*
X119975000Y-92525000D01*
X100350000Y-92625000D02*
X101959000Y-94234000D01*
X84325000Y-92625000D02*
X100350000Y-92625000D01*
X84325000Y-92713000D02*
X84325000Y-92625000D01*
X121412000Y-93962000D02*
X121412000Y-94234000D01*
X119975000Y-92525000D02*
X121412000Y-93962000D01*
X82804000Y-94234000D02*
X84325000Y-92713000D01*
X101959000Y-94234000D02*
X102108000Y-94234000D01*
X100350000Y-92625000D02*
X119875000Y-92625000D01*
%TO.N,Net-(D4-A)*%
X94875000Y-103900000D02*
X91050000Y-103900000D01*
X96350000Y-96350000D02*
X96350000Y-102425000D01*
X96350000Y-102425000D02*
X94875000Y-103900000D01*
X89004000Y-101854000D02*
X82804000Y-101854000D01*
X91050000Y-103900000D02*
X89004000Y-101854000D01*
X95250000Y-95250000D02*
X96350000Y-96350000D01*
%TO.N,Net-(D5-A)*%
X114800000Y-95750000D02*
X114800000Y-103400000D01*
X114800000Y-103400000D02*
X107050000Y-103400000D01*
X114300000Y-95250000D02*
X114800000Y-95750000D01*
X105154000Y-101854000D02*
X102108000Y-101854000D01*
X107050000Y-103400000D02*
X106875000Y-103575000D01*
X106875000Y-103575000D02*
X105154000Y-101854000D01*
%TO.N,Net-(D6-A)*%
X133600000Y-103975000D02*
X133750000Y-103975000D01*
X124783000Y-105225000D02*
X132350000Y-105225000D01*
X133750000Y-103975000D02*
X133350000Y-103575000D01*
X133350000Y-103575000D02*
X133350000Y-95250000D01*
X121412000Y-101854000D02*
X124783000Y-105225000D01*
X132350000Y-105225000D02*
X133600000Y-103975000D01*
%TO.N,Row 2*%
X108925000Y-58125000D02*
X111800000Y-58125000D01*
X107750000Y-56950000D02*
X107825000Y-57025000D01*
X107825000Y-57025000D02*
X108925000Y-58125000D01*
X82804000Y-58221000D02*
X84075000Y-56950000D01*
X82804000Y-58440000D02*
X82804000Y-58221000D01*
X111800000Y-58125000D02*
X116625000Y-58100000D01*
X84075000Y-56950000D02*
X107750000Y-56950000D01*
X116625000Y-58100000D02*
X116600000Y-58125000D01*
%TO.N,ENC_A1*%
X125700000Y-57525000D02*
X124375000Y-57525000D01*
X108500000Y-59575000D02*
X108500000Y-59525000D01*
X122200000Y-59700000D02*
X108675000Y-59700000D01*
X124375000Y-57525000D02*
X122200000Y-59700000D01*
X130475000Y-57525000D02*
X125700000Y-57525000D01*
X133300000Y-54700000D02*
X130475000Y-57525000D01*
X108550000Y-59575000D02*
X108500000Y-59575000D01*
X108675000Y-59700000D02*
X108550000Y-59575000D01*
X108500000Y-59525000D02*
X108475000Y-59500000D01*
%TO.N,Net-(D10-A)*%
X139700000Y-66060000D02*
X136635000Y-69125000D01*
X136450000Y-69125000D02*
X136375000Y-69200000D01*
X136635000Y-69125000D02*
X136450000Y-69125000D01*
X136375000Y-69200000D02*
X133300000Y-69200000D01*
%TO.N,Net-(D11-A)*%
X92750000Y-66225000D02*
X95200000Y-68675000D01*
X82804000Y-66060000D02*
X91710000Y-66060000D01*
X91875000Y-66225000D02*
X92750000Y-66225000D01*
X91710000Y-66060000D02*
X91875000Y-66225000D01*
%TO.N,ENC_B1*%
X127475000Y-55525000D02*
X112600000Y-55525000D01*
X128300000Y-54700000D02*
X127475000Y-55525000D01*
X110100000Y-55675000D02*
X110125000Y-55675000D01*
X112600000Y-55525000D02*
X112450000Y-55675000D01*
X112450000Y-55675000D02*
X110150000Y-55675000D01*
X110150000Y-55675000D02*
X110025000Y-55650000D01*
X110025000Y-55650000D02*
X110100000Y-55675000D01*
%TO.N,GND*%
X126300000Y-50200000D02*
X122875000Y-50200000D01*
X117375000Y-48725000D02*
X117300000Y-48725000D01*
X122875000Y-50200000D02*
X118850000Y-50200000D01*
X118850000Y-50200000D02*
X117375000Y-48725000D01*
X117300000Y-48650000D02*
X117362500Y-48712500D01*
X130800000Y-54700000D02*
X126300000Y-50200000D01*
X117300000Y-48725000D02*
X117300000Y-48650000D01*
%TO.N,ENC_A0*%
X107650000Y-54050000D02*
X108500000Y-54900000D01*
X108500000Y-54900000D02*
X108500000Y-55600000D01*
X109350000Y-56600000D02*
X116525000Y-56600000D01*
X108500000Y-55600000D02*
X109350000Y-56450000D01*
X95200000Y-54175000D02*
X107525000Y-54175000D01*
X109350000Y-56450000D02*
X109350000Y-56600000D01*
X107525000Y-54175000D02*
X107650000Y-54050000D01*
%TO.N,Col 0*%
X79750000Y-54575000D02*
X79750000Y-68525000D01*
X83800000Y-47525000D02*
X83775000Y-47550000D01*
X79900000Y-68675000D02*
X90200000Y-68675000D01*
X116100000Y-47525000D02*
X83800000Y-47525000D01*
X116175000Y-54000000D02*
X116175000Y-47600000D01*
X79750000Y-68525000D02*
X79900000Y-68675000D01*
X116175000Y-47600000D02*
X116100000Y-47525000D01*
X83775000Y-50550000D02*
X79750000Y-54575000D01*
X83775000Y-47550000D02*
X83775000Y-50550000D01*
%TO.N,Col 2*%
X124275000Y-48975000D02*
X124275000Y-48950000D01*
X141550000Y-57550000D02*
X141550000Y-55800000D01*
X141550000Y-55800000D02*
X141575000Y-55775000D01*
X135275000Y-49475000D02*
X134475000Y-49475000D01*
X131900000Y-74200000D02*
X141300000Y-74200000D01*
X124800000Y-49475000D02*
X124300000Y-48975000D01*
X124275000Y-48950000D02*
X124325000Y-49000000D01*
X141550000Y-73950000D02*
X141550000Y-57550000D01*
X131725000Y-74375000D02*
X131900000Y-74200000D01*
X127000000Y-78740000D02*
X131365000Y-74375000D01*
X141300000Y-74200000D02*
X141550000Y-73950000D01*
X134475000Y-49475000D02*
X124800000Y-49475000D01*
X131365000Y-74375000D02*
X131725000Y-74375000D01*
X141575000Y-55775000D02*
X135275000Y-49475000D01*
X124300000Y-48975000D02*
X124275000Y-48975000D01*
%TD*%
M02*
