M48
; DRILL file {KiCad 7.0.11} date Tue Feb 27 10:57:53 2024
; FORMAT={-:-/ absolute / metric / decimal}
; #@! TF.CreationDate,2024-02-27T10:57:53-05:00
; #@! TF.GenerationSoftware,Kicad,Pcbnew,7.0.11
; #@! TF.FileFunction,Plated,1,2,PTH
FMAT,2
METRIC
; #@! TA.AperFunction,Plated,PTH,ViaDrill
T1C0.400
; #@! TA.AperFunction,Plated,PTH,ComponentDrill
T2C0.800
; #@! TA.AperFunction,Plated,PTH,ComponentDrill
T3C1.000
; #@! TA.AperFunction,Plated,PTH,ComponentDrill
T4C1.500
%
G90
G05
T1
X108.5Y-59.575
X110.025Y-55.65
X116.175Y-54.0
X116.525Y-56.6
X116.625Y-58.1
X117.3Y-48.725
X122.437Y-70.23
X123.441Y-82.211
X124.275Y-48.975
T2
X81.788Y-75.438
X81.788Y-83.058
X82.804Y-58.44
X82.804Y-66.06
X82.804Y-94.234
X82.804Y-101.854
X101.825Y-94.234
X101.825Y-101.854
X102.108Y-75.438
X102.108Y-83.058
X120.95Y-94.065
X120.95Y-101.685
X121.05Y-75.438
X121.05Y-83.058
X139.7Y-58.44
X139.7Y-66.06
T3
X90.2Y-54.175
X90.2Y-68.675
X92.7Y-54.175
X95.2Y-54.175
X95.2Y-68.675
X128.3Y-54.7
X128.3Y-69.2
X130.8Y-54.7
X133.3Y-54.7
X133.3Y-69.2
T4
X88.9Y-78.74
X88.9Y-97.79
X95.25Y-76.2
X95.25Y-95.25
X107.95Y-78.74
X107.95Y-97.79
X114.3Y-76.2
X114.3Y-95.25
X127.0Y-78.74
X127.0Y-97.79
X133.35Y-76.2
X133.35Y-95.25
T4
X87.1Y-61.025G85X87.1Y-62.325
G05
X98.3Y-61.025G85X98.3Y-62.325
G05
X125.2Y-61.55G85X125.2Y-62.85
G05
X136.4Y-61.55G85X136.4Y-62.85
G05
M30
