%TF.GenerationSoftware,KiCad,Pcbnew,7.0.11*%
%TF.CreationDate,2024-02-27T10:57:45-05:00*%
%TF.ProjectId,MacropadPCB,4d616372-6f70-4616-9450-43422e6b6963,rev?*%
%TF.SameCoordinates,Original*%
%TF.FileFunction,Copper,L2,Bot*%
%TF.FilePolarity,Positive*%
%FSLAX46Y46*%
G04 Gerber Fmt 4.6, Leading zero omitted, Abs format (unit mm)*
G04 Created by KiCad (PCBNEW 7.0.11) date 2024-02-27 10:57:45*
%MOMM*%
%LPD*%
G01*
G04 APERTURE LIST*
G04 Aperture macros list*
%AMRoundRect*
0 Rectangle with rounded corners*
0 $1 Rounding radius*
0 $2 $3 $4 $5 $6 $7 $8 $9 X,Y pos of 4 corners*
0 Add a 4 corners polygon primitive as box body*
4,1,4,$2,$3,$4,$5,$6,$7,$8,$9,$2,$3,0*
0 Add four circle primitives for the rounded corners*
1,1,$1+$1,$2,$3*
1,1,$1+$1,$4,$5*
1,1,$1+$1,$6,$7*
1,1,$1+$1,$8,$9*
0 Add four rect primitives between the rounded corners*
20,1,$1+$1,$2,$3,$4,$5,0*
20,1,$1+$1,$4,$5,$6,$7,0*
20,1,$1+$1,$6,$7,$8,$9,0*
20,1,$1+$1,$8,$9,$2,$3,0*%
G04 Aperture macros list end*
%TA.AperFunction,SMDPad,CuDef*%
%ADD10RoundRect,0.250000X-1.025000X-1.000000X1.025000X-1.000000X1.025000X1.000000X-1.025000X1.000000X0*%
%TD*%
%TA.AperFunction,ComponentPad*%
%ADD11C,2.200000*%
%TD*%
%TA.AperFunction,ComponentPad*%
%ADD12R,1.600000X1.600000*%
%TD*%
%TA.AperFunction,ComponentPad*%
%ADD13O,1.600000X1.600000*%
%TD*%
%TA.AperFunction,ComponentPad*%
%ADD14R,2.000000X2.000000*%
%TD*%
%TA.AperFunction,ComponentPad*%
%ADD15C,2.000000*%
%TD*%
%TA.AperFunction,ComponentPad*%
%ADD16R,2.000000X3.200000*%
%TD*%
%TA.AperFunction,SMDPad,CuDef*%
%ADD17RoundRect,0.500000X0.875000X0.500000X-0.875000X0.500000X-0.875000X-0.500000X0.875000X-0.500000X0*%
%TD*%
%TA.AperFunction,ViaPad*%
%ADD18C,0.800000*%
%TD*%
%TA.AperFunction,Conductor*%
%ADD19C,0.250000*%
%TD*%
G04 APERTURE END LIST*
D10*
%TO.P,REF\u002A\u002A,1*%
%TO.N,Col 0*%
X85625000Y-97790000D03*
%TO.P,REF\u002A\u002A,2*%
%TO.N,Net-(D4-A)*%
X98552000Y-95250000D03*
%TD*%
%TO.P,REF\u002A\u002A,1*%
%TO.N,Col 1*%
X104675000Y-97790000D03*
%TO.P,REF\u002A\u002A,2*%
%TO.N,Net-(D5-A)*%
X117602000Y-95250000D03*
%TD*%
%TO.P,REF\u002A\u002A,1*%
%TO.N,Col 2*%
X123725000Y-97790000D03*
%TO.P,REF\u002A\u002A,2*%
%TO.N,Net-(D6-A)*%
X136652000Y-95250000D03*
%TD*%
%TO.P,REF\u002A\u002A,1*%
%TO.N,Col 2*%
X123725000Y-78740000D03*
%TO.P,REF\u002A\u002A,2*%
%TO.N,Net-(D3-A)*%
X136652000Y-76200000D03*
%TD*%
%TO.P,REF\u002A\u002A,1*%
%TO.N,Col 1*%
X104675000Y-78740000D03*
%TO.P,REF\u002A\u002A,2*%
%TO.N,Net-(D2-A)*%
X117602000Y-76200000D03*
%TD*%
%TO.P,REF\u002A\u002A,1*%
%TO.N,Col 0*%
X85625000Y-78740000D03*
%TO.P,REF\u002A\u002A,2*%
%TO.N,Net-(D1-A)*%
X98552000Y-76200000D03*
%TD*%
D11*
%TO.P,SW5,1,A*%
%TO.N,Net-(D5-A)*%
X114300000Y-95250000D03*
%TO.P,SW5,2,B*%
%TO.N,Col 1*%
X107950000Y-97790000D03*
%TD*%
%TO.P,SW1,1,A*%
%TO.N,Net-(D2-A)*%
X114300000Y-76200000D03*
%TO.P,SW1,2,B*%
%TO.N,Col 1*%
X107950000Y-78740000D03*
%TD*%
D12*
%TO.P,D2,1,K*%
%TO.N,Row 0*%
X102108000Y-75438000D03*
D13*
%TO.P,D2,2,A*%
%TO.N,Net-(D2-A)*%
X102108000Y-83058000D03*
%TD*%
D11*
%TO.P,SW3,1,A*%
%TO.N,Net-(D3-A)*%
X133350000Y-76200000D03*
%TO.P,SW3,2,B*%
%TO.N,Col 2*%
X127000000Y-78740000D03*
%TD*%
D14*
%TO.P,SW10,A,A*%
%TO.N,ENC_A1*%
X133300000Y-54700000D03*
D15*
%TO.P,SW10,B,B*%
%TO.N,ENC_B1*%
X128300000Y-54700000D03*
%TO.P,SW10,C,C*%
%TO.N,GND*%
X130800000Y-54700000D03*
D16*
%TO.P,SW10,MP*%
%TO.N,N/C*%
X136400000Y-62200000D03*
X125200000Y-62200000D03*
D15*
%TO.P,SW10,S1,S1*%
%TO.N,Col 2*%
X128300000Y-69200000D03*
%TO.P,SW10,S2,S2*%
%TO.N,Net-(D10-A)*%
X133300000Y-69200000D03*
%TD*%
D13*
%TO.P,D1,2,A*%
%TO.N,Net-(D1-A)*%
X81788000Y-83058000D03*
D12*
%TO.P,D1,1,K*%
%TO.N,Row 0*%
X81788000Y-75438000D03*
%TD*%
D11*
%TO.P,SW4,1,A*%
%TO.N,Net-(D4-A)*%
X95250000Y-95250000D03*
%TO.P,SW4,2,B*%
%TO.N,Col 0*%
X88900000Y-97790000D03*
%TD*%
D14*
%TO.P,SW11,A,A*%
%TO.N,ENC_A0*%
X95200000Y-54175000D03*
D15*
%TO.P,SW11,B,B*%
%TO.N,ENC_B0*%
X90200000Y-54175000D03*
%TO.P,SW11,C,C*%
%TO.N,GND*%
X92700000Y-54175000D03*
D16*
%TO.P,SW11,MP*%
%TO.N,N/C*%
X98300000Y-61675000D03*
X87100000Y-61675000D03*
D15*
%TO.P,SW11,S1,S1*%
%TO.N,Col 0*%
X90200000Y-68675000D03*
%TO.P,SW11,S2,S2*%
%TO.N,Net-(D11-A)*%
X95200000Y-68675000D03*
%TD*%
D12*
%TO.P,D10,1,K*%
%TO.N,Row 2*%
X139700000Y-58440000D03*
D13*
%TO.P,D10,2,A*%
%TO.N,Net-(D10-A)*%
X139700000Y-66060000D03*
%TD*%
D12*
%TO.P,D4,1,K*%
%TO.N,Row 1*%
X82804000Y-94234000D03*
D13*
%TO.P,D4,2,A*%
%TO.N,Net-(D4-A)*%
X82804000Y-101854000D03*
%TD*%
D12*
%TO.P,D11,1,K*%
%TO.N,Row 2*%
X82804000Y-58440000D03*
D13*
%TO.P,D11,2,A*%
%TO.N,Net-(D11-A)*%
X82804000Y-66060000D03*
%TD*%
D12*
%TO.P,D5,1,K*%
%TO.N,Row 1*%
X101825000Y-94234000D03*
D13*
%TO.P,D5,2,A*%
%TO.N,Net-(D5-A)*%
X101825000Y-101854000D03*
%TD*%
D12*
%TO.P,D3,1,K*%
%TO.N,Row 0*%
X121050000Y-75438000D03*
D13*
%TO.P,D3,2,A*%
%TO.N,Net-(D3-A)*%
X121050000Y-83058000D03*
%TD*%
D11*
%TO.P,SW2,1,A*%
%TO.N,Net-(D1-A)*%
X95250000Y-76200000D03*
%TO.P,SW2,2,B*%
%TO.N,Col 0*%
X88900000Y-78740000D03*
%TD*%
D12*
%TO.P,D6,1,K*%
%TO.N,Row 1*%
X120950000Y-94065000D03*
D13*
%TO.P,D6,2,A*%
%TO.N,Net-(D6-A)*%
X120950000Y-101685000D03*
%TD*%
D11*
%TO.P,SW6,1,A*%
%TO.N,Net-(D6-A)*%
X133350000Y-95250000D03*
%TO.P,SW6,2,B*%
%TO.N,Col 2*%
X127000000Y-97790000D03*
%TD*%
D17*
%TO.P,U1,1,PA02_A0_D0*%
%TO.N,Col 2*%
X119842500Y-48625000D03*
%TO.P,U1,2,PA4_A1_D1*%
%TO.N,Col 1*%
X119842500Y-51165000D03*
%TO.P,U1,3,PA10_A2_D2*%
%TO.N,Col 0*%
X119842500Y-53705000D03*
%TO.P,U1,4,PA11_A3_D3*%
%TO.N,ENC_A0*%
X119842500Y-56245000D03*
%TO.P,U1,5,PA8_A4_D4_SDA*%
%TO.N,Row 2*%
X119842500Y-58785000D03*
%TO.P,U1,6,PA9_A5_D5_SCL*%
%TO.N,Row 1*%
X119842500Y-61325000D03*
%TO.P,U1,7,PB08_A6_D6_TX*%
%TO.N,Row 0*%
X119842500Y-63865000D03*
%TO.P,U1,8,PB09_A7_D7_RX*%
%TO.N,ENC_B0*%
X103677500Y-63865000D03*
%TO.P,U1,9,PA7_A8_D8_SCK*%
%TO.N,ENC_A1*%
X103677500Y-61325000D03*
%TO.P,U1,10,PA5_A9_D9_MISO*%
%TO.N,ENC_B1*%
X103677500Y-58785000D03*
%TO.P,U1,11,PA6_A10_D10_MOSI*%
%TO.N,unconnected-(U1-PA6_A10_D10_MOSI-Pad11)*%
X103677500Y-56245000D03*
%TO.P,U1,12,3V3*%
%TO.N,unconnected-(U1-3V3-Pad12)*%
X103677500Y-53705000D03*
%TO.P,U1,13,GND*%
%TO.N,GND*%
X103677500Y-51165000D03*
%TO.P,U1,14,5V*%
%TO.N,unconnected-(U1-5V-Pad14)*%
X103677500Y-48625000D03*
%TD*%
D18*
%TO.N,Row 1*%
X122436578Y-70229700D03*
X123440758Y-82211413D03*
%TO.N,Row 2*%
X116625000Y-58100000D03*
%TO.N,ENC_A1*%
X108500000Y-59575000D03*
%TO.N,ENC_B1*%
X110025000Y-55650000D03*
%TO.N,GND*%
X117300000Y-48725000D03*
%TO.N,ENC_A0*%
X116525000Y-56600000D03*
%TO.N,Col 0*%
X116175000Y-54000000D03*
%TO.N,Col 2*%
X124275000Y-48975000D03*
%TD*%
D19*
%TO.N,Col 1*%
X107950000Y-97790000D02*
X104675000Y-97790000D01*
%TO.N,Net-(D5-A)*%
X117602000Y-95250000D02*
X114300000Y-95250000D01*
%TO.N,Col 2*%
X123725000Y-97790000D02*
X127000000Y-97790000D01*
%TO.N,Net-(D6-A)*%
X136652000Y-95250000D02*
X133350000Y-95250000D01*
%TO.N,Net-(D3-A)*%
X136652000Y-76200000D02*
X133350000Y-76200000D01*
%TO.N,Col 2*%
X123725000Y-78740000D02*
X127000000Y-78740000D01*
%TO.N,Net-(D2-A)*%
X114300000Y-76200000D02*
X117602000Y-76200000D01*
%TO.N,Col 1*%
X104675000Y-78740000D02*
X107950000Y-78740000D01*
%TO.N,Net-(D1-A)*%
X95250000Y-76200000D02*
X98552000Y-76200000D01*
%TO.N,Col 0*%
X88900000Y-78740000D02*
X85625000Y-78740000D01*
%TO.N,Net-(D4-A)*%
X95250000Y-95250000D02*
X98552000Y-95250000D01*
%TO.N,Col 0*%
X88900000Y-97790000D02*
X85625000Y-97790000D01*
%TO.N,Row 1*%
X124175000Y-65600000D02*
X123600000Y-65025000D01*
X123600000Y-61475000D02*
X123450000Y-61325000D01*
X123450000Y-61325000D02*
X119842500Y-61325000D01*
X123600000Y-65025000D02*
X123600000Y-61475000D01*
%TO.N,Col 0*%
X89175000Y-70575000D02*
X89175000Y-69700000D01*
X88900000Y-78740000D02*
X88900000Y-70850000D01*
X88900000Y-70850000D02*
X89175000Y-70575000D01*
X89175000Y-69700000D02*
X90200000Y-68675000D01*
%TO.N,Row 0*%
X119842500Y-63865000D02*
X120040000Y-63865000D01*
X120040000Y-63865000D02*
X121850000Y-65675000D01*
X121412000Y-66113000D02*
X121412000Y-75438000D01*
X121850000Y-65675000D02*
X121412000Y-66113000D01*
%TO.N,Row 1*%
X123325000Y-82300000D02*
X123350000Y-82275000D01*
X123325000Y-85075000D02*
X123325000Y-82300000D01*
X123125000Y-85075000D02*
X123325000Y-85075000D01*
X121412000Y-86788000D02*
X123125000Y-85075000D01*
X121412000Y-94234000D02*
X121412000Y-86788000D01*
%TO.N,*%
X121171498Y-54925000D02*
X121542500Y-55296002D01*
X121400000Y-55025000D02*
X121300000Y-54925000D01*
X121300000Y-54925000D02*
X121171498Y-54925000D01*
X121542500Y-55296002D02*
X121542500Y-56245000D01*
%TO.N,Row 2*%
X139700000Y-58440000D02*
X120187500Y-58440000D01*
X120187500Y-58440000D02*
X119842500Y-58785000D01*
X117310000Y-58785000D02*
X119842500Y-58785000D01*
X116625000Y-58100000D02*
X117310000Y-58785000D01*
%TO.N,ENC_A1*%
X108500000Y-59575000D02*
X106750000Y-61325000D01*
X106750000Y-61325000D02*
X103677500Y-61325000D01*
%TO.N,ENC_B1*%
X110025000Y-55650000D02*
X106890000Y-58785000D01*
X106890000Y-58785000D02*
X103677500Y-58785000D01*
%TO.N,GND*%
X93385000Y-51165000D02*
X103677500Y-51165000D01*
X117300000Y-48725000D02*
X106950000Y-48725000D01*
X105835000Y-51165000D02*
X103677500Y-51165000D01*
X105925000Y-51075000D02*
X105835000Y-51165000D01*
X105925000Y-49300000D02*
X105925000Y-51075000D01*
X92700000Y-51850000D02*
X93385000Y-51165000D01*
X106950000Y-48725000D02*
X106725000Y-48500000D01*
X92700000Y-54175000D02*
X92700000Y-51850000D01*
X106725000Y-48500000D02*
X105925000Y-49300000D01*
%TO.N,ENC_A0*%
X116525000Y-56600000D02*
X116880000Y-56245000D01*
X116880000Y-56245000D02*
X119842500Y-56245000D01*
%TO.N,ENC_B0*%
X99350000Y-56175000D02*
X101225000Y-58050000D01*
X101225000Y-63150000D02*
X101940000Y-63865000D01*
X101940000Y-63865000D02*
X103677500Y-63865000D01*
X101225000Y-58050000D02*
X101225000Y-63150000D01*
X90200000Y-54175000D02*
X92200000Y-56175000D01*
X92200000Y-56175000D02*
X99350000Y-56175000D01*
%TO.N,Col 1*%
X110825000Y-51325000D02*
X110665000Y-51165000D01*
X108675000Y-81250000D02*
X107950000Y-80525000D01*
X107950000Y-97790000D02*
X109525000Y-96215000D01*
X108675000Y-82350000D02*
X108675000Y-81250000D01*
X107950000Y-78740000D02*
X110825000Y-75865000D01*
X110665000Y-51165000D02*
X119842500Y-51165000D01*
X107950000Y-80525000D02*
X107950000Y-78740000D01*
X109525000Y-83200000D02*
X108675000Y-82350000D01*
X110825000Y-75865000D02*
X110825000Y-51325000D01*
X109525000Y-96215000D02*
X109525000Y-83200000D01*
%TO.N,Col 0*%
X88900000Y-97790000D02*
X88900000Y-84975000D01*
X116175000Y-54000000D02*
X119547500Y-54000000D01*
X89850000Y-81300000D02*
X88900000Y-80350000D01*
X119547500Y-54000000D02*
X119842500Y-53705000D01*
X88900000Y-84975000D02*
X89850000Y-84025000D01*
X88900000Y-80350000D02*
X88900000Y-78740000D01*
X89850000Y-84025000D02*
X89850000Y-81300000D01*
%TO.N,Col 2*%
X127950000Y-81400000D02*
X127000000Y-80450000D01*
X127025000Y-70375000D02*
X127125000Y-70375000D01*
X124275000Y-48975000D02*
X123925000Y-48625000D01*
X127000000Y-80450000D02*
X127000000Y-78740000D01*
X127000000Y-78740000D02*
X127000000Y-70400000D01*
X127950000Y-93425000D02*
X127950000Y-81400000D01*
X127000000Y-70400000D02*
X127025000Y-70375000D01*
X127125000Y-70375000D02*
X128300000Y-69200000D01*
X127000000Y-97790000D02*
X127000000Y-94375000D01*
X123925000Y-48625000D02*
X119842500Y-48625000D01*
X127000000Y-94375000D02*
X127950000Y-93425000D01*
%TD*%
M02*
