%TF.GenerationSoftware,KiCad,Pcbnew,7.0.11*%
%TF.CreationDate,2024-02-27T10:57:45-05:00*%
%TF.ProjectId,MacropadPCB,4d616372-6f70-4616-9450-43422e6b6963,rev?*%
%TF.SameCoordinates,Original*%
%TF.FileFunction,Legend,Bot*%
%TF.FilePolarity,Positive*%
%FSLAX46Y46*%
G04 Gerber Fmt 4.6, Leading zero omitted, Abs format (unit mm)*
G04 Created by KiCad (PCBNEW 7.0.11) date 2024-02-27 10:57:45*
%MOMM*%
%LPD*%
G01*
G04 APERTURE LIST*
G04 Aperture macros list*
%AMRoundRect*
0 Rectangle with rounded corners*
0 $1 Rounding radius*
0 $2 $3 $4 $5 $6 $7 $8 $9 X,Y pos of 4 corners*
0 Add a 4 corners polygon primitive as box body*
4,1,4,$2,$3,$4,$5,$6,$7,$8,$9,$2,$3,0*
0 Add four circle primitives for the rounded corners*
1,1,$1+$1,$2,$3*
1,1,$1+$1,$4,$5*
1,1,$1+$1,$6,$7*
1,1,$1+$1,$8,$9*
0 Add four rect primitives between the rounded corners*
20,1,$1+$1,$2,$3,$4,$5,0*
20,1,$1+$1,$4,$5,$6,$7,0*
20,1,$1+$1,$6,$7,$8,$9,0*
20,1,$1+$1,$8,$9,$2,$3,0*%
G04 Aperture macros list end*
%ADD10C,0.150000*%
%ADD11C,0.120000*%
%ADD12C,4.000000*%
%ADD13RoundRect,0.250000X-1.025000X-1.000000X1.025000X-1.000000X1.025000X1.000000X-1.025000X1.000000X0*%
%ADD14C,1.700000*%
%ADD15C,2.200000*%
%ADD16R,1.600000X1.600000*%
%ADD17O,1.600000X1.600000*%
%ADD18R,2.000000X2.000000*%
%ADD19C,2.000000*%
%ADD20R,2.000000X3.200000*%
%ADD21RoundRect,0.500000X0.875000X0.500000X-0.875000X0.500000X-0.875000X-0.500000X0.875000X-0.500000X0*%
G04 APERTURE END LIST*
D10*
X119189404Y-44699819D02*
X119189404Y-45509342D01*
X119189404Y-45509342D02*
X119141785Y-45604580D01*
X119141785Y-45604580D02*
X119094166Y-45652200D01*
X119094166Y-45652200D02*
X118998928Y-45699819D01*
X118998928Y-45699819D02*
X118808452Y-45699819D01*
X118808452Y-45699819D02*
X118713214Y-45652200D01*
X118713214Y-45652200D02*
X118665595Y-45604580D01*
X118665595Y-45604580D02*
X118617976Y-45509342D01*
X118617976Y-45509342D02*
X118617976Y-44699819D01*
X117617976Y-45699819D02*
X118189404Y-45699819D01*
X117903690Y-45699819D02*
X117903690Y-44699819D01*
X117903690Y-44699819D02*
X117998928Y-44842676D01*
X117998928Y-44842676D02*
X118094166Y-44937914D01*
X118094166Y-44937914D02*
X118189404Y-44985533D01*
D11*
%TO.C,REF\u002A\u002A*%
X88610000Y-93430000D02*
X93710000Y-93430000D01*
X92510000Y-97630000D02*
X97610000Y-97630000D01*
X88610000Y-93430000D02*
G75*
G03*
X86610000Y-95430000I-1J-1999999D01*
G01*
X92510000Y-97630000D02*
G75*
G03*
X90510000Y-99630000I-1J-1999999D01*
G01*
X107660000Y-93430000D02*
X112760000Y-93430000D01*
X111560000Y-97630000D02*
X116660000Y-97630000D01*
X107660000Y-93430000D02*
G75*
G03*
X105660000Y-95430000I-1J-1999999D01*
G01*
X111560000Y-97630000D02*
G75*
G03*
X109560000Y-99630000I-1J-1999999D01*
G01*
X126710000Y-93430000D02*
X131810000Y-93430000D01*
X130610000Y-97630000D02*
X135710000Y-97630000D01*
X126710000Y-93430000D02*
G75*
G03*
X124710000Y-95430000I-1J-1999999D01*
G01*
X130610000Y-97630000D02*
G75*
G03*
X128610000Y-99630000I-1J-1999999D01*
G01*
X126710000Y-74380000D02*
X131810000Y-74380000D01*
X130610000Y-78580000D02*
X135710000Y-78580000D01*
X126710000Y-74380000D02*
G75*
G03*
X124710000Y-76380000I-1J-1999999D01*
G01*
X130610000Y-78580000D02*
G75*
G03*
X128610000Y-80580000I-1J-1999999D01*
G01*
X107660000Y-74380000D02*
X112760000Y-74380000D01*
X111560000Y-78580000D02*
X116660000Y-78580000D01*
X107660000Y-74380000D02*
G75*
G03*
X105660000Y-76380000I-1J-1999999D01*
G01*
X111560000Y-78580000D02*
G75*
G03*
X109560000Y-80580000I-1J-1999999D01*
G01*
X88610000Y-74380000D02*
X93710000Y-74380000D01*
X92510000Y-78580000D02*
X97610000Y-78580000D01*
X88610000Y-74380000D02*
G75*
G03*
X86610000Y-76380000I-1J-1999999D01*
G01*
X92510000Y-78580000D02*
G75*
G03*
X90510000Y-80580000I-1J-1999999D01*
G01*
%TO.C,U1*%
X120677500Y-45745000D02*
X102877500Y-45745000D01*
X102877500Y-45745000D02*
X102877500Y-66745000D01*
X102877500Y-66745000D02*
X120677500Y-66745000D01*
X120677500Y-66745000D02*
X120677500Y-45745000D01*
%TD*%
%LPC*%
D12*
%TO.C,REF\u002A\u002A*%
X92710000Y-100330000D03*
D13*
X85625000Y-97790000D03*
X98552000Y-95250000D03*
%TD*%
D12*
%TO.C,REF\u002A\u002A*%
X111760000Y-100330000D03*
D13*
X104675000Y-97790000D03*
X117602000Y-95250000D03*
%TD*%
D12*
%TO.C,REF\u002A\u002A*%
X130810000Y-100330000D03*
D13*
X123725000Y-97790000D03*
X136652000Y-95250000D03*
%TD*%
D12*
%TO.C,REF\u002A\u002A*%
X130810000Y-81280000D03*
D13*
X123725000Y-78740000D03*
X136652000Y-76200000D03*
%TD*%
D12*
%TO.C,REF\u002A\u002A*%
X111760000Y-81280000D03*
D13*
X104675000Y-78740000D03*
X117602000Y-76200000D03*
%TD*%
D12*
%TO.C,REF\u002A\u002A*%
X92710000Y-81280000D03*
D13*
X85625000Y-78740000D03*
X98552000Y-76200000D03*
%TD*%
D14*
%TO.C,SW5*%
X106680000Y-100330000D03*
D12*
X111760000Y-100330000D03*
D14*
X116840000Y-100330000D03*
D15*
X114300000Y-95250000D03*
X107950000Y-97790000D03*
%TD*%
D14*
%TO.C,SW1*%
X106680000Y-81280000D03*
D12*
X111760000Y-81280000D03*
D14*
X116840000Y-81280000D03*
D15*
X114300000Y-76200000D03*
X107950000Y-78740000D03*
%TD*%
D16*
%TO.C,D2*%
X102108000Y-75438000D03*
D17*
X102108000Y-83058000D03*
%TD*%
D14*
%TO.C,SW3*%
X125730000Y-81280000D03*
D12*
X130810000Y-81280000D03*
D14*
X135890000Y-81280000D03*
D15*
X133350000Y-76200000D03*
X127000000Y-78740000D03*
%TD*%
D18*
%TO.C,SW10*%
X133300000Y-54700000D03*
D19*
X128300000Y-54700000D03*
X130800000Y-54700000D03*
D20*
X136400000Y-62200000D03*
X125200000Y-62200000D03*
D19*
X128300000Y-69200000D03*
X133300000Y-69200000D03*
%TD*%
D17*
%TO.C,D1*%
X81788000Y-83058000D03*
D16*
X81788000Y-75438000D03*
%TD*%
D14*
%TO.C,SW4*%
X87630000Y-100330000D03*
D12*
X92710000Y-100330000D03*
D14*
X97790000Y-100330000D03*
D15*
X95250000Y-95250000D03*
X88900000Y-97790000D03*
%TD*%
D18*
%TO.C,SW11*%
X95200000Y-54175000D03*
D19*
X90200000Y-54175000D03*
X92700000Y-54175000D03*
D20*
X98300000Y-61675000D03*
X87100000Y-61675000D03*
D19*
X90200000Y-68675000D03*
X95200000Y-68675000D03*
%TD*%
D16*
%TO.C,D10*%
X139700000Y-58440000D03*
D17*
X139700000Y-66060000D03*
%TD*%
D16*
%TO.C,D4*%
X82804000Y-94234000D03*
D17*
X82804000Y-101854000D03*
%TD*%
D16*
%TO.C,D11*%
X82804000Y-58440000D03*
D17*
X82804000Y-66060000D03*
%TD*%
D16*
%TO.C,D5*%
X101825000Y-94234000D03*
D17*
X101825000Y-101854000D03*
%TD*%
D16*
%TO.C,D3*%
X121050000Y-75438000D03*
D17*
X121050000Y-83058000D03*
%TD*%
D14*
%TO.C,SW2*%
X87630000Y-81280000D03*
D12*
X92710000Y-81280000D03*
D14*
X97790000Y-81280000D03*
D15*
X95250000Y-76200000D03*
X88900000Y-78740000D03*
%TD*%
D16*
%TO.C,D6*%
X120950000Y-94065000D03*
D17*
X120950000Y-101685000D03*
%TD*%
D14*
%TO.C,SW6*%
X125730000Y-100330000D03*
D12*
X130810000Y-100330000D03*
D14*
X135890000Y-100330000D03*
D15*
X133350000Y-95250000D03*
X127000000Y-97790000D03*
%TD*%
D21*
%TO.C,U1*%
X119842500Y-48625000D03*
X119842500Y-51165000D03*
X119842500Y-53705000D03*
X119842500Y-56245000D03*
X119842500Y-58785000D03*
X119842500Y-61325000D03*
X119842500Y-63865000D03*
X103677500Y-63865000D03*
X103677500Y-61325000D03*
X103677500Y-58785000D03*
X103677500Y-56245000D03*
X103677500Y-53705000D03*
X103677500Y-51165000D03*
X103677500Y-48625000D03*
%TD*%
%LPD*%
M02*
