%TF.GenerationSoftware,KiCad,Pcbnew,7.0.11*%
%TF.CreationDate,2024-02-27T10:57:45-05:00*%
%TF.ProjectId,MacropadPCB,4d616372-6f70-4616-9450-43422e6b6963,rev?*%
%TF.SameCoordinates,Original*%
%TF.FileFunction,Soldermask,Top*%
%TF.FilePolarity,Negative*%
%FSLAX46Y46*%
G04 Gerber Fmt 4.6, Leading zero omitted, Abs format (unit mm)*
G04 Created by KiCad (PCBNEW 7.0.11) date 2024-02-27 10:57:45*
%MOMM*%
%LPD*%
G01*
G04 APERTURE LIST*
%ADD10C,4.000000*%
%ADD11C,1.700000*%
%ADD12C,2.200000*%
%ADD13R,1.600000X1.600000*%
%ADD14O,1.600000X1.600000*%
%ADD15R,2.000000X2.000000*%
%ADD16C,2.000000*%
%ADD17R,2.000000X3.200000*%
G04 APERTURE END LIST*
D10*
%TO.C,REF\u002A\u002A*%
X92710000Y-100330000D03*
%TD*%
%TO.C,REF\u002A\u002A*%
X111760000Y-100330000D03*
%TD*%
%TO.C,REF\u002A\u002A*%
X130810000Y-100330000D03*
%TD*%
%TO.C,REF\u002A\u002A*%
X130810000Y-81280000D03*
%TD*%
%TO.C,REF\u002A\u002A*%
X111760000Y-81280000D03*
%TD*%
%TO.C,REF\u002A\u002A*%
X92710000Y-81280000D03*
%TD*%
D11*
%TO.C,SW5*%
X106680000Y-100330000D03*
D10*
X111760000Y-100330000D03*
D11*
X116840000Y-100330000D03*
D12*
X114300000Y-95250000D03*
X107950000Y-97790000D03*
%TD*%
D11*
%TO.C,SW1*%
X106680000Y-81280000D03*
D10*
X111760000Y-81280000D03*
D11*
X116840000Y-81280000D03*
D12*
X114300000Y-76200000D03*
X107950000Y-78740000D03*
%TD*%
D13*
%TO.C,D2*%
X102108000Y-75438000D03*
D14*
X102108000Y-83058000D03*
%TD*%
D11*
%TO.C,SW3*%
X125730000Y-81280000D03*
D10*
X130810000Y-81280000D03*
D11*
X135890000Y-81280000D03*
D12*
X133350000Y-76200000D03*
X127000000Y-78740000D03*
%TD*%
D15*
%TO.C,SW10*%
X133300000Y-54700000D03*
D16*
X128300000Y-54700000D03*
X130800000Y-54700000D03*
D17*
X136400000Y-62200000D03*
X125200000Y-62200000D03*
D16*
X128300000Y-69200000D03*
X133300000Y-69200000D03*
%TD*%
D14*
%TO.C,D1*%
X81788000Y-83058000D03*
D13*
X81788000Y-75438000D03*
%TD*%
D11*
%TO.C,SW4*%
X87630000Y-100330000D03*
D10*
X92710000Y-100330000D03*
D11*
X97790000Y-100330000D03*
D12*
X95250000Y-95250000D03*
X88900000Y-97790000D03*
%TD*%
D15*
%TO.C,SW11*%
X95200000Y-54175000D03*
D16*
X90200000Y-54175000D03*
X92700000Y-54175000D03*
D17*
X98300000Y-61675000D03*
X87100000Y-61675000D03*
D16*
X90200000Y-68675000D03*
X95200000Y-68675000D03*
%TD*%
D13*
%TO.C,D10*%
X139700000Y-58440000D03*
D14*
X139700000Y-66060000D03*
%TD*%
D13*
%TO.C,D4*%
X82804000Y-94234000D03*
D14*
X82804000Y-101854000D03*
%TD*%
D13*
%TO.C,D11*%
X82804000Y-58440000D03*
D14*
X82804000Y-66060000D03*
%TD*%
D13*
%TO.C,D5*%
X101825000Y-94234000D03*
D14*
X101825000Y-101854000D03*
%TD*%
D13*
%TO.C,D3*%
X121050000Y-75438000D03*
D14*
X121050000Y-83058000D03*
%TD*%
D11*
%TO.C,SW2*%
X87630000Y-81280000D03*
D10*
X92710000Y-81280000D03*
D11*
X97790000Y-81280000D03*
D12*
X95250000Y-76200000D03*
X88900000Y-78740000D03*
%TD*%
D13*
%TO.C,D6*%
X120950000Y-94065000D03*
D14*
X120950000Y-101685000D03*
%TD*%
D11*
%TO.C,SW6*%
X125730000Y-100330000D03*
D10*
X130810000Y-100330000D03*
D11*
X135890000Y-100330000D03*
D12*
X133350000Y-95250000D03*
X127000000Y-97790000D03*
%TD*%
M02*
