%TF.GenerationSoftware,KiCad,Pcbnew,7.0.11*%
%TF.CreationDate,2024-02-27T10:57:45-05:00*%
%TF.ProjectId,MacropadPCB,4d616372-6f70-4616-9450-43422e6b6963,rev?*%
%TF.SameCoordinates,Original*%
%TF.FileFunction,Soldermask,Bot*%
%TF.FilePolarity,Negative*%
%FSLAX46Y46*%
G04 Gerber Fmt 4.6, Leading zero omitted, Abs format (unit mm)*
G04 Created by KiCad (PCBNEW 7.0.11) date 2024-02-27 10:57:45*
%MOMM*%
%LPD*%
G01*
G04 APERTURE LIST*
G04 Aperture macros list*
%AMRoundRect*
0 Rectangle with rounded corners*
0 $1 Rounding radius*
0 $2 $3 $4 $5 $6 $7 $8 $9 X,Y pos of 4 corners*
0 Add a 4 corners polygon primitive as box body*
4,1,4,$2,$3,$4,$5,$6,$7,$8,$9,$2,$3,0*
0 Add four circle primitives for the rounded corners*
1,1,$1+$1,$2,$3*
1,1,$1+$1,$4,$5*
1,1,$1+$1,$6,$7*
1,1,$1+$1,$8,$9*
0 Add four rect primitives between the rounded corners*
20,1,$1+$1,$2,$3,$4,$5,0*
20,1,$1+$1,$4,$5,$6,$7,0*
20,1,$1+$1,$6,$7,$8,$9,0*
20,1,$1+$1,$8,$9,$2,$3,0*%
G04 Aperture macros list end*
%ADD10C,4.000000*%
%ADD11RoundRect,0.250000X-1.025000X-1.000000X1.025000X-1.000000X1.025000X1.000000X-1.025000X1.000000X0*%
%ADD12C,1.700000*%
%ADD13C,2.200000*%
%ADD14R,1.600000X1.600000*%
%ADD15O,1.600000X1.600000*%
%ADD16R,2.000000X2.000000*%
%ADD17C,2.000000*%
%ADD18R,2.000000X3.200000*%
%ADD19RoundRect,0.500000X0.875000X0.500000X-0.875000X0.500000X-0.875000X-0.500000X0.875000X-0.500000X0*%
G04 APERTURE END LIST*
D10*
%TO.C,REF\u002A\u002A*%
X92710000Y-100330000D03*
D11*
X85625000Y-97790000D03*
X98552000Y-95250000D03*
%TD*%
D10*
%TO.C,REF\u002A\u002A*%
X111760000Y-100330000D03*
D11*
X104675000Y-97790000D03*
X117602000Y-95250000D03*
%TD*%
D10*
%TO.C,REF\u002A\u002A*%
X130810000Y-100330000D03*
D11*
X123725000Y-97790000D03*
X136652000Y-95250000D03*
%TD*%
D10*
%TO.C,REF\u002A\u002A*%
X130810000Y-81280000D03*
D11*
X123725000Y-78740000D03*
X136652000Y-76200000D03*
%TD*%
D10*
%TO.C,REF\u002A\u002A*%
X111760000Y-81280000D03*
D11*
X104675000Y-78740000D03*
X117602000Y-76200000D03*
%TD*%
D10*
%TO.C,REF\u002A\u002A*%
X92710000Y-81280000D03*
D11*
X85625000Y-78740000D03*
X98552000Y-76200000D03*
%TD*%
D12*
%TO.C,SW5*%
X106680000Y-100330000D03*
D10*
X111760000Y-100330000D03*
D12*
X116840000Y-100330000D03*
D13*
X114300000Y-95250000D03*
X107950000Y-97790000D03*
%TD*%
D12*
%TO.C,SW1*%
X106680000Y-81280000D03*
D10*
X111760000Y-81280000D03*
D12*
X116840000Y-81280000D03*
D13*
X114300000Y-76200000D03*
X107950000Y-78740000D03*
%TD*%
D14*
%TO.C,D2*%
X102108000Y-75438000D03*
D15*
X102108000Y-83058000D03*
%TD*%
D12*
%TO.C,SW3*%
X125730000Y-81280000D03*
D10*
X130810000Y-81280000D03*
D12*
X135890000Y-81280000D03*
D13*
X133350000Y-76200000D03*
X127000000Y-78740000D03*
%TD*%
D16*
%TO.C,SW10*%
X133300000Y-54700000D03*
D17*
X128300000Y-54700000D03*
X130800000Y-54700000D03*
D18*
X136400000Y-62200000D03*
X125200000Y-62200000D03*
D17*
X128300000Y-69200000D03*
X133300000Y-69200000D03*
%TD*%
D15*
%TO.C,D1*%
X81788000Y-83058000D03*
D14*
X81788000Y-75438000D03*
%TD*%
D12*
%TO.C,SW4*%
X87630000Y-100330000D03*
D10*
X92710000Y-100330000D03*
D12*
X97790000Y-100330000D03*
D13*
X95250000Y-95250000D03*
X88900000Y-97790000D03*
%TD*%
D16*
%TO.C,SW11*%
X95200000Y-54175000D03*
D17*
X90200000Y-54175000D03*
X92700000Y-54175000D03*
D18*
X98300000Y-61675000D03*
X87100000Y-61675000D03*
D17*
X90200000Y-68675000D03*
X95200000Y-68675000D03*
%TD*%
D14*
%TO.C,D10*%
X139700000Y-58440000D03*
D15*
X139700000Y-66060000D03*
%TD*%
D14*
%TO.C,D4*%
X82804000Y-94234000D03*
D15*
X82804000Y-101854000D03*
%TD*%
D14*
%TO.C,D11*%
X82804000Y-58440000D03*
D15*
X82804000Y-66060000D03*
%TD*%
D14*
%TO.C,D5*%
X101825000Y-94234000D03*
D15*
X101825000Y-101854000D03*
%TD*%
D14*
%TO.C,D3*%
X121050000Y-75438000D03*
D15*
X121050000Y-83058000D03*
%TD*%
D12*
%TO.C,SW2*%
X87630000Y-81280000D03*
D10*
X92710000Y-81280000D03*
D12*
X97790000Y-81280000D03*
D13*
X95250000Y-76200000D03*
X88900000Y-78740000D03*
%TD*%
D14*
%TO.C,D6*%
X120950000Y-94065000D03*
D15*
X120950000Y-101685000D03*
%TD*%
D12*
%TO.C,SW6*%
X125730000Y-100330000D03*
D10*
X130810000Y-100330000D03*
D12*
X135890000Y-100330000D03*
D13*
X133350000Y-95250000D03*
X127000000Y-97790000D03*
%TD*%
D19*
%TO.C,U1*%
X119842500Y-48625000D03*
X119842500Y-51165000D03*
X119842500Y-53705000D03*
X119842500Y-56245000D03*
X119842500Y-58785000D03*
X119842500Y-61325000D03*
X119842500Y-63865000D03*
X103677500Y-63865000D03*
X103677500Y-61325000D03*
X103677500Y-58785000D03*
X103677500Y-56245000D03*
X103677500Y-53705000D03*
X103677500Y-51165000D03*
X103677500Y-48625000D03*
%TD*%
M02*
