%TF.GenerationSoftware,KiCad,Pcbnew,7.0.11*%
%TF.CreationDate,2024-02-27T10:57:54-05:00*%
%TF.ProjectId,MacropadPCB,4d616372-6f70-4616-9450-43422e6b6963,rev?*%
%TF.SameCoordinates,Original*%
%TF.FileFunction,Drillmap*%
%TF.FilePolarity,Positive*%
%FSLAX45Y45*%
G04 Gerber Fmt 4.5, Leading zero omitted, Abs format (unit mm)*
G04 Created by KiCad (PCBNEW 7.0.11) date 2024-02-27 10:57:54*
%MOMM*%
%LPD*%
G01*
G04 APERTURE LIST*
%ADD10C,0.100000*%
%ADD11C,0.200000*%
%ADD12C,0.150000*%
G04 APERTURE END LIST*
D10*
X7722500Y-4670000D02*
X14630000Y-4670000D01*
X14630000Y-11585000D01*
X7722500Y-11585000D01*
X7722500Y-4670000D01*
X14515000Y-11285000D02*
G75*
G03*
X14145000Y-11285000I-185000J0D01*
G01*
X14145000Y-11285000D02*
G75*
G03*
X14515000Y-11285000I185000J0D01*
G01*
X8207500Y-4970000D02*
G75*
G03*
X7837500Y-4970000I-185000J0D01*
G01*
X7837500Y-4970000D02*
G75*
G03*
X8207500Y-4970000I185000J0D01*
G01*
X8202500Y-11282500D02*
G75*
G03*
X7832500Y-11282500I-185000J0D01*
G01*
X7832500Y-11282500D02*
G75*
G03*
X8202500Y-11282500I185000J0D01*
G01*
X14517500Y-4972500D02*
G75*
G03*
X14147500Y-4972500I-185000J0D01*
G01*
X14147500Y-4972500D02*
G75*
G03*
X14517500Y-4972500I185000J0D01*
G01*
D11*
D10*
X10830000Y-5937500D02*
X10870000Y-5977500D01*
X10870000Y-5937500D02*
X10830000Y-5977500D01*
X10982500Y-5545000D02*
X11022500Y-5585000D01*
X11022500Y-5545000D02*
X10982500Y-5585000D01*
X11597500Y-5380000D02*
X11637500Y-5420000D01*
X11637500Y-5380000D02*
X11597500Y-5420000D01*
X11632500Y-5640000D02*
X11672500Y-5680000D01*
X11672500Y-5640000D02*
X11632500Y-5680000D01*
X11642500Y-5790000D02*
X11682500Y-5830000D01*
X11682500Y-5790000D02*
X11642500Y-5830000D01*
X11710000Y-4852500D02*
X11750000Y-4892500D01*
X11750000Y-4852500D02*
X11710000Y-4892500D01*
X12223658Y-7002970D02*
X12263658Y-7042970D01*
X12263658Y-7002970D02*
X12223658Y-7042970D01*
X12324076Y-8201141D02*
X12364076Y-8241141D01*
X12364076Y-8201141D02*
X12324076Y-8241141D01*
X12407500Y-4877500D02*
X12447500Y-4917500D01*
X12447500Y-4877500D02*
X12407500Y-4917500D01*
X8218800Y-7543800D02*
G75*
G03*
X8138800Y-7543800I-40000J0D01*
G01*
X8138800Y-7543800D02*
G75*
G03*
X8218800Y-7543800I40000J0D01*
G01*
X8218800Y-8305800D02*
G75*
G03*
X8138800Y-8305800I-40000J0D01*
G01*
X8138800Y-8305800D02*
G75*
G03*
X8218800Y-8305800I40000J0D01*
G01*
X8320400Y-5844000D02*
G75*
G03*
X8240400Y-5844000I-40000J0D01*
G01*
X8240400Y-5844000D02*
G75*
G03*
X8320400Y-5844000I40000J0D01*
G01*
X8320400Y-6606000D02*
G75*
G03*
X8240400Y-6606000I-40000J0D01*
G01*
X8240400Y-6606000D02*
G75*
G03*
X8320400Y-6606000I40000J0D01*
G01*
X8320400Y-9423400D02*
G75*
G03*
X8240400Y-9423400I-40000J0D01*
G01*
X8240400Y-9423400D02*
G75*
G03*
X8320400Y-9423400I40000J0D01*
G01*
X8320400Y-10185400D02*
G75*
G03*
X8240400Y-10185400I-40000J0D01*
G01*
X8240400Y-10185400D02*
G75*
G03*
X8320400Y-10185400I40000J0D01*
G01*
X10222500Y-9423400D02*
G75*
G03*
X10142500Y-9423400I-40000J0D01*
G01*
X10142500Y-9423400D02*
G75*
G03*
X10222500Y-9423400I40000J0D01*
G01*
X10222500Y-10185400D02*
G75*
G03*
X10142500Y-10185400I-40000J0D01*
G01*
X10142500Y-10185400D02*
G75*
G03*
X10222500Y-10185400I40000J0D01*
G01*
X10250800Y-7543800D02*
G75*
G03*
X10170800Y-7543800I-40000J0D01*
G01*
X10170800Y-7543800D02*
G75*
G03*
X10250800Y-7543800I40000J0D01*
G01*
X10250800Y-8305800D02*
G75*
G03*
X10170800Y-8305800I-40000J0D01*
G01*
X10170800Y-8305800D02*
G75*
G03*
X10250800Y-8305800I40000J0D01*
G01*
X12135000Y-9406500D02*
G75*
G03*
X12055000Y-9406500I-40000J0D01*
G01*
X12055000Y-9406500D02*
G75*
G03*
X12135000Y-9406500I40000J0D01*
G01*
X12135000Y-10168500D02*
G75*
G03*
X12055000Y-10168500I-40000J0D01*
G01*
X12055000Y-10168500D02*
G75*
G03*
X12135000Y-10168500I40000J0D01*
G01*
X12145000Y-7543800D02*
G75*
G03*
X12065000Y-7543800I-40000J0D01*
G01*
X12065000Y-7543800D02*
G75*
G03*
X12145000Y-7543800I40000J0D01*
G01*
X12145000Y-8305800D02*
G75*
G03*
X12065000Y-8305800I-40000J0D01*
G01*
X12065000Y-8305800D02*
G75*
G03*
X12145000Y-8305800I40000J0D01*
G01*
X14010000Y-5844000D02*
G75*
G03*
X13930000Y-5844000I-40000J0D01*
G01*
X13930000Y-5844000D02*
G75*
G03*
X14010000Y-5844000I40000J0D01*
G01*
X14010000Y-6606000D02*
G75*
G03*
X13930000Y-6606000I-40000J0D01*
G01*
X13930000Y-6606000D02*
G75*
G03*
X14010000Y-6606000I40000J0D01*
G01*
X9020000Y-5367500D02*
X9020000Y-5467500D01*
X8970000Y-5417500D02*
X9070000Y-5417500D01*
X9020000Y-6817500D02*
X9020000Y-6917500D01*
X8970000Y-6867500D02*
X9070000Y-6867500D01*
X9270000Y-5367500D02*
X9270000Y-5467500D01*
X9220000Y-5417500D02*
X9320000Y-5417500D01*
X9520000Y-5367500D02*
X9520000Y-5467500D01*
X9470000Y-5417500D02*
X9570000Y-5417500D01*
X9520000Y-6817500D02*
X9520000Y-6917500D01*
X9470000Y-6867500D02*
X9570000Y-6867500D01*
X12830000Y-5420000D02*
X12830000Y-5520000D01*
X12780000Y-5470000D02*
X12880000Y-5470000D01*
X12830000Y-6870000D02*
X12830000Y-6970000D01*
X12780000Y-6920000D02*
X12880000Y-6920000D01*
X13080000Y-5420000D02*
X13080000Y-5520000D01*
X13030000Y-5470000D02*
X13130000Y-5470000D01*
X13330000Y-5420000D02*
X13330000Y-5520000D01*
X13280000Y-5470000D02*
X13380000Y-5470000D01*
X13330000Y-6870000D02*
X13330000Y-6970000D01*
X13280000Y-6920000D02*
X13380000Y-6920000D01*
D12*
X8763034Y-6220533D02*
X8763034Y-6114466D01*
X8656967Y-6114466D01*
X8656967Y-6220533D01*
X8763034Y-6220533D01*
D10*
X8635000Y-6102500D02*
X8635000Y-6232500D01*
X8635000Y-6232500D02*
G75*
G03*
X8785000Y-6232500I75000J0D01*
G01*
X8785000Y-6232500D02*
X8785000Y-6102500D01*
X8785000Y-6102500D02*
G75*
G03*
X8635000Y-6102500I-75000J0D01*
G01*
D12*
X8943034Y-7927033D02*
X8943034Y-7820966D01*
X8836967Y-7820966D01*
X8836967Y-7927033D01*
X8943034Y-7927033D01*
X8943034Y-9832034D02*
X8943034Y-9725967D01*
X8836967Y-9725967D01*
X8836967Y-9832034D01*
X8943034Y-9832034D01*
X9578034Y-7673033D02*
X9578034Y-7566966D01*
X9471967Y-7566966D01*
X9471967Y-7673033D01*
X9578034Y-7673033D01*
X9578034Y-9578034D02*
X9578034Y-9471967D01*
X9471967Y-9471967D01*
X9471967Y-9578034D01*
X9578034Y-9578034D01*
X9883034Y-6220533D02*
X9883034Y-6114466D01*
X9776967Y-6114466D01*
X9776967Y-6220533D01*
X9883034Y-6220533D01*
D10*
X9755000Y-6102500D02*
X9755000Y-6232500D01*
X9755000Y-6232500D02*
G75*
G03*
X9905000Y-6232500I75000J0D01*
G01*
X9905000Y-6232500D02*
X9905000Y-6102500D01*
X9905000Y-6102500D02*
G75*
G03*
X9755000Y-6102500I-75000J0D01*
G01*
D12*
X10848034Y-7927033D02*
X10848034Y-7820966D01*
X10741967Y-7820966D01*
X10741967Y-7927033D01*
X10848034Y-7927033D01*
X10848034Y-9832034D02*
X10848034Y-9725967D01*
X10741967Y-9725967D01*
X10741967Y-9832034D01*
X10848034Y-9832034D01*
X11483033Y-7673033D02*
X11483033Y-7566966D01*
X11376966Y-7566966D01*
X11376966Y-7673033D01*
X11483033Y-7673033D01*
X11483033Y-9578034D02*
X11483033Y-9471967D01*
X11376966Y-9471967D01*
X11376966Y-9578034D01*
X11483033Y-9578034D01*
X12573033Y-6273033D02*
X12573033Y-6166966D01*
X12466966Y-6166966D01*
X12466966Y-6273033D01*
X12573033Y-6273033D01*
D10*
X12445000Y-6155000D02*
X12445000Y-6285000D01*
X12445000Y-6285000D02*
G75*
G03*
X12595000Y-6285000I75000J0D01*
G01*
X12595000Y-6285000D02*
X12595000Y-6155000D01*
X12595000Y-6155000D02*
G75*
G03*
X12445000Y-6155000I-75000J0D01*
G01*
D12*
X12753033Y-7927033D02*
X12753033Y-7820966D01*
X12646966Y-7820966D01*
X12646966Y-7927033D01*
X12753033Y-7927033D01*
X12753033Y-9832034D02*
X12753033Y-9725967D01*
X12646966Y-9725967D01*
X12646966Y-9832034D01*
X12753033Y-9832034D01*
X13388033Y-7673033D02*
X13388033Y-7566966D01*
X13281966Y-7566966D01*
X13281966Y-7673033D01*
X13388033Y-7673033D01*
X13388033Y-9578034D02*
X13388033Y-9471967D01*
X13281966Y-9471967D01*
X13281966Y-9578034D01*
X13388033Y-9578034D01*
X13693033Y-6273033D02*
X13693033Y-6166966D01*
X13586966Y-6166966D01*
X13586966Y-6273033D01*
X13693033Y-6273033D01*
D10*
X13565000Y-6155000D02*
X13565000Y-6285000D01*
X13565000Y-6285000D02*
G75*
G03*
X13715000Y-6285000I75000J0D01*
G01*
X13715000Y-6285000D02*
X13715000Y-6155000D01*
X13715000Y-6155000D02*
G75*
G03*
X13565000Y-6155000I-75000J0D01*
G01*
D11*
X7978277Y-11901484D02*
X7978277Y-11701484D01*
X7978277Y-11701484D02*
X8025896Y-11701484D01*
X8025896Y-11701484D02*
X8054467Y-11711008D01*
X8054467Y-11711008D02*
X8073515Y-11730055D01*
X8073515Y-11730055D02*
X8083039Y-11749103D01*
X8083039Y-11749103D02*
X8092562Y-11787198D01*
X8092562Y-11787198D02*
X8092562Y-11815769D01*
X8092562Y-11815769D02*
X8083039Y-11853865D01*
X8083039Y-11853865D02*
X8073515Y-11872912D01*
X8073515Y-11872912D02*
X8054467Y-11891960D01*
X8054467Y-11891960D02*
X8025896Y-11901484D01*
X8025896Y-11901484D02*
X7978277Y-11901484D01*
X8178277Y-11901484D02*
X8178277Y-11768150D01*
X8178277Y-11806246D02*
X8187801Y-11787198D01*
X8187801Y-11787198D02*
X8197324Y-11777674D01*
X8197324Y-11777674D02*
X8216372Y-11768150D01*
X8216372Y-11768150D02*
X8235420Y-11768150D01*
X8302086Y-11901484D02*
X8302086Y-11768150D01*
X8302086Y-11701484D02*
X8292562Y-11711008D01*
X8292562Y-11711008D02*
X8302086Y-11720531D01*
X8302086Y-11720531D02*
X8311610Y-11711008D01*
X8311610Y-11711008D02*
X8302086Y-11701484D01*
X8302086Y-11701484D02*
X8302086Y-11720531D01*
X8425896Y-11901484D02*
X8406848Y-11891960D01*
X8406848Y-11891960D02*
X8397324Y-11872912D01*
X8397324Y-11872912D02*
X8397324Y-11701484D01*
X8530658Y-11901484D02*
X8511610Y-11891960D01*
X8511610Y-11891960D02*
X8502086Y-11872912D01*
X8502086Y-11872912D02*
X8502086Y-11701484D01*
X8759229Y-11901484D02*
X8759229Y-11701484D01*
X8759229Y-11701484D02*
X8825896Y-11844341D01*
X8825896Y-11844341D02*
X8892563Y-11701484D01*
X8892563Y-11701484D02*
X8892563Y-11901484D01*
X9073515Y-11901484D02*
X9073515Y-11796722D01*
X9073515Y-11796722D02*
X9063991Y-11777674D01*
X9063991Y-11777674D02*
X9044944Y-11768150D01*
X9044944Y-11768150D02*
X9006848Y-11768150D01*
X9006848Y-11768150D02*
X8987801Y-11777674D01*
X9073515Y-11891960D02*
X9054467Y-11901484D01*
X9054467Y-11901484D02*
X9006848Y-11901484D01*
X9006848Y-11901484D02*
X8987801Y-11891960D01*
X8987801Y-11891960D02*
X8978277Y-11872912D01*
X8978277Y-11872912D02*
X8978277Y-11853865D01*
X8978277Y-11853865D02*
X8987801Y-11834817D01*
X8987801Y-11834817D02*
X9006848Y-11825293D01*
X9006848Y-11825293D02*
X9054467Y-11825293D01*
X9054467Y-11825293D02*
X9073515Y-11815769D01*
X9168753Y-11768150D02*
X9168753Y-11968150D01*
X9168753Y-11777674D02*
X9187801Y-11768150D01*
X9187801Y-11768150D02*
X9225896Y-11768150D01*
X9225896Y-11768150D02*
X9244944Y-11777674D01*
X9244944Y-11777674D02*
X9254467Y-11787198D01*
X9254467Y-11787198D02*
X9263991Y-11806246D01*
X9263991Y-11806246D02*
X9263991Y-11863388D01*
X9263991Y-11863388D02*
X9254467Y-11882436D01*
X9254467Y-11882436D02*
X9244944Y-11891960D01*
X9244944Y-11891960D02*
X9225896Y-11901484D01*
X9225896Y-11901484D02*
X9187801Y-11901484D01*
X9187801Y-11901484D02*
X9168753Y-11891960D01*
X9349705Y-11882436D02*
X9359229Y-11891960D01*
X9359229Y-11891960D02*
X9349705Y-11901484D01*
X9349705Y-11901484D02*
X9340182Y-11891960D01*
X9340182Y-11891960D02*
X9349705Y-11882436D01*
X9349705Y-11882436D02*
X9349705Y-11901484D01*
X9349705Y-11777674D02*
X9359229Y-11787198D01*
X9359229Y-11787198D02*
X9349705Y-11796722D01*
X9349705Y-11796722D02*
X9340182Y-11787198D01*
X9340182Y-11787198D02*
X9349705Y-11777674D01*
X9349705Y-11777674D02*
X9349705Y-11796722D01*
D10*
X7677500Y-12210000D02*
X7717500Y-12250000D01*
X7717500Y-12210000D02*
X7677500Y-12250000D01*
D11*
X8016372Y-12121484D02*
X8035420Y-12121484D01*
X8035420Y-12121484D02*
X8054467Y-12131008D01*
X8054467Y-12131008D02*
X8063991Y-12140531D01*
X8063991Y-12140531D02*
X8073515Y-12159579D01*
X8073515Y-12159579D02*
X8083039Y-12197674D01*
X8083039Y-12197674D02*
X8083039Y-12245293D01*
X8083039Y-12245293D02*
X8073515Y-12283388D01*
X8073515Y-12283388D02*
X8063991Y-12302436D01*
X8063991Y-12302436D02*
X8054467Y-12311960D01*
X8054467Y-12311960D02*
X8035420Y-12321484D01*
X8035420Y-12321484D02*
X8016372Y-12321484D01*
X8016372Y-12321484D02*
X7997324Y-12311960D01*
X7997324Y-12311960D02*
X7987801Y-12302436D01*
X7987801Y-12302436D02*
X7978277Y-12283388D01*
X7978277Y-12283388D02*
X7968753Y-12245293D01*
X7968753Y-12245293D02*
X7968753Y-12197674D01*
X7968753Y-12197674D02*
X7978277Y-12159579D01*
X7978277Y-12159579D02*
X7987801Y-12140531D01*
X7987801Y-12140531D02*
X7997324Y-12131008D01*
X7997324Y-12131008D02*
X8016372Y-12121484D01*
X8168753Y-12302436D02*
X8178277Y-12311960D01*
X8178277Y-12311960D02*
X8168753Y-12321484D01*
X8168753Y-12321484D02*
X8159229Y-12311960D01*
X8159229Y-12311960D02*
X8168753Y-12302436D01*
X8168753Y-12302436D02*
X8168753Y-12321484D01*
X8349705Y-12188150D02*
X8349705Y-12321484D01*
X8302086Y-12111960D02*
X8254467Y-12254817D01*
X8254467Y-12254817D02*
X8378277Y-12254817D01*
X8492563Y-12121484D02*
X8511610Y-12121484D01*
X8511610Y-12121484D02*
X8530658Y-12131008D01*
X8530658Y-12131008D02*
X8540182Y-12140531D01*
X8540182Y-12140531D02*
X8549705Y-12159579D01*
X8549705Y-12159579D02*
X8559229Y-12197674D01*
X8559229Y-12197674D02*
X8559229Y-12245293D01*
X8559229Y-12245293D02*
X8549705Y-12283388D01*
X8549705Y-12283388D02*
X8540182Y-12302436D01*
X8540182Y-12302436D02*
X8530658Y-12311960D01*
X8530658Y-12311960D02*
X8511610Y-12321484D01*
X8511610Y-12321484D02*
X8492563Y-12321484D01*
X8492563Y-12321484D02*
X8473515Y-12311960D01*
X8473515Y-12311960D02*
X8463991Y-12302436D01*
X8463991Y-12302436D02*
X8454467Y-12283388D01*
X8454467Y-12283388D02*
X8444944Y-12245293D01*
X8444944Y-12245293D02*
X8444944Y-12197674D01*
X8444944Y-12197674D02*
X8454467Y-12159579D01*
X8454467Y-12159579D02*
X8463991Y-12140531D01*
X8463991Y-12140531D02*
X8473515Y-12131008D01*
X8473515Y-12131008D02*
X8492563Y-12121484D01*
X8683039Y-12121484D02*
X8702086Y-12121484D01*
X8702086Y-12121484D02*
X8721134Y-12131008D01*
X8721134Y-12131008D02*
X8730658Y-12140531D01*
X8730658Y-12140531D02*
X8740182Y-12159579D01*
X8740182Y-12159579D02*
X8749705Y-12197674D01*
X8749705Y-12197674D02*
X8749705Y-12245293D01*
X8749705Y-12245293D02*
X8740182Y-12283388D01*
X8740182Y-12283388D02*
X8730658Y-12302436D01*
X8730658Y-12302436D02*
X8721134Y-12311960D01*
X8721134Y-12311960D02*
X8702086Y-12321484D01*
X8702086Y-12321484D02*
X8683039Y-12321484D01*
X8683039Y-12321484D02*
X8663991Y-12311960D01*
X8663991Y-12311960D02*
X8654467Y-12302436D01*
X8654467Y-12302436D02*
X8644944Y-12283388D01*
X8644944Y-12283388D02*
X8635420Y-12245293D01*
X8635420Y-12245293D02*
X8635420Y-12197674D01*
X8635420Y-12197674D02*
X8644944Y-12159579D01*
X8644944Y-12159579D02*
X8654467Y-12140531D01*
X8654467Y-12140531D02*
X8663991Y-12131008D01*
X8663991Y-12131008D02*
X8683039Y-12121484D01*
X8835420Y-12321484D02*
X8835420Y-12188150D01*
X8835420Y-12207198D02*
X8844944Y-12197674D01*
X8844944Y-12197674D02*
X8863991Y-12188150D01*
X8863991Y-12188150D02*
X8892563Y-12188150D01*
X8892563Y-12188150D02*
X8911610Y-12197674D01*
X8911610Y-12197674D02*
X8921134Y-12216722D01*
X8921134Y-12216722D02*
X8921134Y-12321484D01*
X8921134Y-12216722D02*
X8930658Y-12197674D01*
X8930658Y-12197674D02*
X8949705Y-12188150D01*
X8949705Y-12188150D02*
X8978277Y-12188150D01*
X8978277Y-12188150D02*
X8997325Y-12197674D01*
X8997325Y-12197674D02*
X9006848Y-12216722D01*
X9006848Y-12216722D02*
X9006848Y-12321484D01*
X9102086Y-12321484D02*
X9102086Y-12188150D01*
X9102086Y-12207198D02*
X9111610Y-12197674D01*
X9111610Y-12197674D02*
X9130658Y-12188150D01*
X9130658Y-12188150D02*
X9159229Y-12188150D01*
X9159229Y-12188150D02*
X9178277Y-12197674D01*
X9178277Y-12197674D02*
X9187801Y-12216722D01*
X9187801Y-12216722D02*
X9187801Y-12321484D01*
X9187801Y-12216722D02*
X9197325Y-12197674D01*
X9197325Y-12197674D02*
X9216372Y-12188150D01*
X9216372Y-12188150D02*
X9244944Y-12188150D01*
X9244944Y-12188150D02*
X9263991Y-12197674D01*
X9263991Y-12197674D02*
X9273515Y-12216722D01*
X9273515Y-12216722D02*
X9273515Y-12321484D01*
X9663991Y-12111960D02*
X9492563Y-12369103D01*
X9921134Y-12121484D02*
X9940182Y-12121484D01*
X9940182Y-12121484D02*
X9959229Y-12131008D01*
X9959229Y-12131008D02*
X9968753Y-12140531D01*
X9968753Y-12140531D02*
X9978277Y-12159579D01*
X9978277Y-12159579D02*
X9987801Y-12197674D01*
X9987801Y-12197674D02*
X9987801Y-12245293D01*
X9987801Y-12245293D02*
X9978277Y-12283388D01*
X9978277Y-12283388D02*
X9968753Y-12302436D01*
X9968753Y-12302436D02*
X9959229Y-12311960D01*
X9959229Y-12311960D02*
X9940182Y-12321484D01*
X9940182Y-12321484D02*
X9921134Y-12321484D01*
X9921134Y-12321484D02*
X9902087Y-12311960D01*
X9902087Y-12311960D02*
X9892563Y-12302436D01*
X9892563Y-12302436D02*
X9883039Y-12283388D01*
X9883039Y-12283388D02*
X9873515Y-12245293D01*
X9873515Y-12245293D02*
X9873515Y-12197674D01*
X9873515Y-12197674D02*
X9883039Y-12159579D01*
X9883039Y-12159579D02*
X9892563Y-12140531D01*
X9892563Y-12140531D02*
X9902087Y-12131008D01*
X9902087Y-12131008D02*
X9921134Y-12121484D01*
X10073515Y-12302436D02*
X10083039Y-12311960D01*
X10083039Y-12311960D02*
X10073515Y-12321484D01*
X10073515Y-12321484D02*
X10063991Y-12311960D01*
X10063991Y-12311960D02*
X10073515Y-12302436D01*
X10073515Y-12302436D02*
X10073515Y-12321484D01*
X10206848Y-12121484D02*
X10225896Y-12121484D01*
X10225896Y-12121484D02*
X10244944Y-12131008D01*
X10244944Y-12131008D02*
X10254468Y-12140531D01*
X10254468Y-12140531D02*
X10263991Y-12159579D01*
X10263991Y-12159579D02*
X10273515Y-12197674D01*
X10273515Y-12197674D02*
X10273515Y-12245293D01*
X10273515Y-12245293D02*
X10263991Y-12283388D01*
X10263991Y-12283388D02*
X10254468Y-12302436D01*
X10254468Y-12302436D02*
X10244944Y-12311960D01*
X10244944Y-12311960D02*
X10225896Y-12321484D01*
X10225896Y-12321484D02*
X10206848Y-12321484D01*
X10206848Y-12321484D02*
X10187801Y-12311960D01*
X10187801Y-12311960D02*
X10178277Y-12302436D01*
X10178277Y-12302436D02*
X10168753Y-12283388D01*
X10168753Y-12283388D02*
X10159229Y-12245293D01*
X10159229Y-12245293D02*
X10159229Y-12197674D01*
X10159229Y-12197674D02*
X10168753Y-12159579D01*
X10168753Y-12159579D02*
X10178277Y-12140531D01*
X10178277Y-12140531D02*
X10187801Y-12131008D01*
X10187801Y-12131008D02*
X10206848Y-12121484D01*
X10463991Y-12321484D02*
X10349706Y-12321484D01*
X10406848Y-12321484D02*
X10406848Y-12121484D01*
X10406848Y-12121484D02*
X10387801Y-12150055D01*
X10387801Y-12150055D02*
X10368753Y-12169103D01*
X10368753Y-12169103D02*
X10349706Y-12178627D01*
X10644944Y-12121484D02*
X10549706Y-12121484D01*
X10549706Y-12121484D02*
X10540182Y-12216722D01*
X10540182Y-12216722D02*
X10549706Y-12207198D01*
X10549706Y-12207198D02*
X10568753Y-12197674D01*
X10568753Y-12197674D02*
X10616372Y-12197674D01*
X10616372Y-12197674D02*
X10635420Y-12207198D01*
X10635420Y-12207198D02*
X10644944Y-12216722D01*
X10644944Y-12216722D02*
X10654468Y-12235769D01*
X10654468Y-12235769D02*
X10654468Y-12283388D01*
X10654468Y-12283388D02*
X10644944Y-12302436D01*
X10644944Y-12302436D02*
X10635420Y-12311960D01*
X10635420Y-12311960D02*
X10616372Y-12321484D01*
X10616372Y-12321484D02*
X10568753Y-12321484D01*
X10568753Y-12321484D02*
X10549706Y-12311960D01*
X10549706Y-12311960D02*
X10540182Y-12302436D01*
X10721134Y-12121484D02*
X10854468Y-12121484D01*
X10854468Y-12121484D02*
X10768753Y-12321484D01*
X10921134Y-12121484D02*
X10921134Y-12159579D01*
X10997325Y-12121484D02*
X10997325Y-12159579D01*
X11292563Y-12397674D02*
X11283039Y-12388150D01*
X11283039Y-12388150D02*
X11263991Y-12359579D01*
X11263991Y-12359579D02*
X11254468Y-12340531D01*
X11254468Y-12340531D02*
X11244944Y-12311960D01*
X11244944Y-12311960D02*
X11235420Y-12264341D01*
X11235420Y-12264341D02*
X11235420Y-12226246D01*
X11235420Y-12226246D02*
X11244944Y-12178627D01*
X11244944Y-12178627D02*
X11254468Y-12150055D01*
X11254468Y-12150055D02*
X11263991Y-12131008D01*
X11263991Y-12131008D02*
X11283039Y-12102436D01*
X11283039Y-12102436D02*
X11292563Y-12092912D01*
X11378277Y-12321484D02*
X11416372Y-12321484D01*
X11416372Y-12321484D02*
X11435420Y-12311960D01*
X11435420Y-12311960D02*
X11444944Y-12302436D01*
X11444944Y-12302436D02*
X11463991Y-12273865D01*
X11463991Y-12273865D02*
X11473515Y-12235769D01*
X11473515Y-12235769D02*
X11473515Y-12159579D01*
X11473515Y-12159579D02*
X11463991Y-12140531D01*
X11463991Y-12140531D02*
X11454468Y-12131008D01*
X11454468Y-12131008D02*
X11435420Y-12121484D01*
X11435420Y-12121484D02*
X11397325Y-12121484D01*
X11397325Y-12121484D02*
X11378277Y-12131008D01*
X11378277Y-12131008D02*
X11368753Y-12140531D01*
X11368753Y-12140531D02*
X11359229Y-12159579D01*
X11359229Y-12159579D02*
X11359229Y-12207198D01*
X11359229Y-12207198D02*
X11368753Y-12226246D01*
X11368753Y-12226246D02*
X11378277Y-12235769D01*
X11378277Y-12235769D02*
X11397325Y-12245293D01*
X11397325Y-12245293D02*
X11435420Y-12245293D01*
X11435420Y-12245293D02*
X11454468Y-12235769D01*
X11454468Y-12235769D02*
X11463991Y-12226246D01*
X11463991Y-12226246D02*
X11473515Y-12207198D01*
X11711610Y-12321484D02*
X11711610Y-12121484D01*
X11797325Y-12321484D02*
X11797325Y-12216722D01*
X11797325Y-12216722D02*
X11787801Y-12197674D01*
X11787801Y-12197674D02*
X11768753Y-12188150D01*
X11768753Y-12188150D02*
X11740182Y-12188150D01*
X11740182Y-12188150D02*
X11721134Y-12197674D01*
X11721134Y-12197674D02*
X11711610Y-12207198D01*
X11921134Y-12321484D02*
X11902087Y-12311960D01*
X11902087Y-12311960D02*
X11892563Y-12302436D01*
X11892563Y-12302436D02*
X11883039Y-12283388D01*
X11883039Y-12283388D02*
X11883039Y-12226246D01*
X11883039Y-12226246D02*
X11892563Y-12207198D01*
X11892563Y-12207198D02*
X11902087Y-12197674D01*
X11902087Y-12197674D02*
X11921134Y-12188150D01*
X11921134Y-12188150D02*
X11949706Y-12188150D01*
X11949706Y-12188150D02*
X11968753Y-12197674D01*
X11968753Y-12197674D02*
X11978277Y-12207198D01*
X11978277Y-12207198D02*
X11987801Y-12226246D01*
X11987801Y-12226246D02*
X11987801Y-12283388D01*
X11987801Y-12283388D02*
X11978277Y-12302436D01*
X11978277Y-12302436D02*
X11968753Y-12311960D01*
X11968753Y-12311960D02*
X11949706Y-12321484D01*
X11949706Y-12321484D02*
X11921134Y-12321484D01*
X12102087Y-12321484D02*
X12083039Y-12311960D01*
X12083039Y-12311960D02*
X12073515Y-12292912D01*
X12073515Y-12292912D02*
X12073515Y-12121484D01*
X12254468Y-12311960D02*
X12235420Y-12321484D01*
X12235420Y-12321484D02*
X12197325Y-12321484D01*
X12197325Y-12321484D02*
X12178277Y-12311960D01*
X12178277Y-12311960D02*
X12168753Y-12292912D01*
X12168753Y-12292912D02*
X12168753Y-12216722D01*
X12168753Y-12216722D02*
X12178277Y-12197674D01*
X12178277Y-12197674D02*
X12197325Y-12188150D01*
X12197325Y-12188150D02*
X12235420Y-12188150D01*
X12235420Y-12188150D02*
X12254468Y-12197674D01*
X12254468Y-12197674D02*
X12263991Y-12216722D01*
X12263991Y-12216722D02*
X12263991Y-12235769D01*
X12263991Y-12235769D02*
X12168753Y-12254817D01*
X12340182Y-12311960D02*
X12359230Y-12321484D01*
X12359230Y-12321484D02*
X12397325Y-12321484D01*
X12397325Y-12321484D02*
X12416372Y-12311960D01*
X12416372Y-12311960D02*
X12425896Y-12292912D01*
X12425896Y-12292912D02*
X12425896Y-12283388D01*
X12425896Y-12283388D02*
X12416372Y-12264341D01*
X12416372Y-12264341D02*
X12397325Y-12254817D01*
X12397325Y-12254817D02*
X12368753Y-12254817D01*
X12368753Y-12254817D02*
X12349706Y-12245293D01*
X12349706Y-12245293D02*
X12340182Y-12226246D01*
X12340182Y-12226246D02*
X12340182Y-12216722D01*
X12340182Y-12216722D02*
X12349706Y-12197674D01*
X12349706Y-12197674D02*
X12368753Y-12188150D01*
X12368753Y-12188150D02*
X12397325Y-12188150D01*
X12397325Y-12188150D02*
X12416372Y-12197674D01*
X12492563Y-12397674D02*
X12502087Y-12388150D01*
X12502087Y-12388150D02*
X12521134Y-12359579D01*
X12521134Y-12359579D02*
X12530658Y-12340531D01*
X12530658Y-12340531D02*
X12540182Y-12311960D01*
X12540182Y-12311960D02*
X12549706Y-12264341D01*
X12549706Y-12264341D02*
X12549706Y-12226246D01*
X12549706Y-12226246D02*
X12540182Y-12178627D01*
X12540182Y-12178627D02*
X12530658Y-12150055D01*
X12530658Y-12150055D02*
X12521134Y-12131008D01*
X12521134Y-12131008D02*
X12502087Y-12102436D01*
X12502087Y-12102436D02*
X12492563Y-12092912D01*
D10*
X7717500Y-12494000D02*
G75*
G03*
X7637500Y-12494000I-40000J0D01*
G01*
X7637500Y-12494000D02*
G75*
G03*
X7717500Y-12494000I40000J0D01*
G01*
D11*
X8016372Y-12385484D02*
X8035420Y-12385484D01*
X8035420Y-12385484D02*
X8054467Y-12395008D01*
X8054467Y-12395008D02*
X8063991Y-12404531D01*
X8063991Y-12404531D02*
X8073515Y-12423579D01*
X8073515Y-12423579D02*
X8083039Y-12461674D01*
X8083039Y-12461674D02*
X8083039Y-12509293D01*
X8083039Y-12509293D02*
X8073515Y-12547388D01*
X8073515Y-12547388D02*
X8063991Y-12566436D01*
X8063991Y-12566436D02*
X8054467Y-12575960D01*
X8054467Y-12575960D02*
X8035420Y-12585484D01*
X8035420Y-12585484D02*
X8016372Y-12585484D01*
X8016372Y-12585484D02*
X7997324Y-12575960D01*
X7997324Y-12575960D02*
X7987801Y-12566436D01*
X7987801Y-12566436D02*
X7978277Y-12547388D01*
X7978277Y-12547388D02*
X7968753Y-12509293D01*
X7968753Y-12509293D02*
X7968753Y-12461674D01*
X7968753Y-12461674D02*
X7978277Y-12423579D01*
X7978277Y-12423579D02*
X7987801Y-12404531D01*
X7987801Y-12404531D02*
X7997324Y-12395008D01*
X7997324Y-12395008D02*
X8016372Y-12385484D01*
X8168753Y-12566436D02*
X8178277Y-12575960D01*
X8178277Y-12575960D02*
X8168753Y-12585484D01*
X8168753Y-12585484D02*
X8159229Y-12575960D01*
X8159229Y-12575960D02*
X8168753Y-12566436D01*
X8168753Y-12566436D02*
X8168753Y-12585484D01*
X8292562Y-12471198D02*
X8273515Y-12461674D01*
X8273515Y-12461674D02*
X8263991Y-12452150D01*
X8263991Y-12452150D02*
X8254467Y-12433103D01*
X8254467Y-12433103D02*
X8254467Y-12423579D01*
X8254467Y-12423579D02*
X8263991Y-12404531D01*
X8263991Y-12404531D02*
X8273515Y-12395008D01*
X8273515Y-12395008D02*
X8292562Y-12385484D01*
X8292562Y-12385484D02*
X8330658Y-12385484D01*
X8330658Y-12385484D02*
X8349705Y-12395008D01*
X8349705Y-12395008D02*
X8359229Y-12404531D01*
X8359229Y-12404531D02*
X8368753Y-12423579D01*
X8368753Y-12423579D02*
X8368753Y-12433103D01*
X8368753Y-12433103D02*
X8359229Y-12452150D01*
X8359229Y-12452150D02*
X8349705Y-12461674D01*
X8349705Y-12461674D02*
X8330658Y-12471198D01*
X8330658Y-12471198D02*
X8292562Y-12471198D01*
X8292562Y-12471198D02*
X8273515Y-12480722D01*
X8273515Y-12480722D02*
X8263991Y-12490246D01*
X8263991Y-12490246D02*
X8254467Y-12509293D01*
X8254467Y-12509293D02*
X8254467Y-12547388D01*
X8254467Y-12547388D02*
X8263991Y-12566436D01*
X8263991Y-12566436D02*
X8273515Y-12575960D01*
X8273515Y-12575960D02*
X8292562Y-12585484D01*
X8292562Y-12585484D02*
X8330658Y-12585484D01*
X8330658Y-12585484D02*
X8349705Y-12575960D01*
X8349705Y-12575960D02*
X8359229Y-12566436D01*
X8359229Y-12566436D02*
X8368753Y-12547388D01*
X8368753Y-12547388D02*
X8368753Y-12509293D01*
X8368753Y-12509293D02*
X8359229Y-12490246D01*
X8359229Y-12490246D02*
X8349705Y-12480722D01*
X8349705Y-12480722D02*
X8330658Y-12471198D01*
X8492563Y-12385484D02*
X8511610Y-12385484D01*
X8511610Y-12385484D02*
X8530658Y-12395008D01*
X8530658Y-12395008D02*
X8540182Y-12404531D01*
X8540182Y-12404531D02*
X8549705Y-12423579D01*
X8549705Y-12423579D02*
X8559229Y-12461674D01*
X8559229Y-12461674D02*
X8559229Y-12509293D01*
X8559229Y-12509293D02*
X8549705Y-12547388D01*
X8549705Y-12547388D02*
X8540182Y-12566436D01*
X8540182Y-12566436D02*
X8530658Y-12575960D01*
X8530658Y-12575960D02*
X8511610Y-12585484D01*
X8511610Y-12585484D02*
X8492563Y-12585484D01*
X8492563Y-12585484D02*
X8473515Y-12575960D01*
X8473515Y-12575960D02*
X8463991Y-12566436D01*
X8463991Y-12566436D02*
X8454467Y-12547388D01*
X8454467Y-12547388D02*
X8444944Y-12509293D01*
X8444944Y-12509293D02*
X8444944Y-12461674D01*
X8444944Y-12461674D02*
X8454467Y-12423579D01*
X8454467Y-12423579D02*
X8463991Y-12404531D01*
X8463991Y-12404531D02*
X8473515Y-12395008D01*
X8473515Y-12395008D02*
X8492563Y-12385484D01*
X8683039Y-12385484D02*
X8702086Y-12385484D01*
X8702086Y-12385484D02*
X8721134Y-12395008D01*
X8721134Y-12395008D02*
X8730658Y-12404531D01*
X8730658Y-12404531D02*
X8740182Y-12423579D01*
X8740182Y-12423579D02*
X8749705Y-12461674D01*
X8749705Y-12461674D02*
X8749705Y-12509293D01*
X8749705Y-12509293D02*
X8740182Y-12547388D01*
X8740182Y-12547388D02*
X8730658Y-12566436D01*
X8730658Y-12566436D02*
X8721134Y-12575960D01*
X8721134Y-12575960D02*
X8702086Y-12585484D01*
X8702086Y-12585484D02*
X8683039Y-12585484D01*
X8683039Y-12585484D02*
X8663991Y-12575960D01*
X8663991Y-12575960D02*
X8654467Y-12566436D01*
X8654467Y-12566436D02*
X8644944Y-12547388D01*
X8644944Y-12547388D02*
X8635420Y-12509293D01*
X8635420Y-12509293D02*
X8635420Y-12461674D01*
X8635420Y-12461674D02*
X8644944Y-12423579D01*
X8644944Y-12423579D02*
X8654467Y-12404531D01*
X8654467Y-12404531D02*
X8663991Y-12395008D01*
X8663991Y-12395008D02*
X8683039Y-12385484D01*
X8835420Y-12585484D02*
X8835420Y-12452150D01*
X8835420Y-12471198D02*
X8844944Y-12461674D01*
X8844944Y-12461674D02*
X8863991Y-12452150D01*
X8863991Y-12452150D02*
X8892563Y-12452150D01*
X8892563Y-12452150D02*
X8911610Y-12461674D01*
X8911610Y-12461674D02*
X8921134Y-12480722D01*
X8921134Y-12480722D02*
X8921134Y-12585484D01*
X8921134Y-12480722D02*
X8930658Y-12461674D01*
X8930658Y-12461674D02*
X8949705Y-12452150D01*
X8949705Y-12452150D02*
X8978277Y-12452150D01*
X8978277Y-12452150D02*
X8997325Y-12461674D01*
X8997325Y-12461674D02*
X9006848Y-12480722D01*
X9006848Y-12480722D02*
X9006848Y-12585484D01*
X9102086Y-12585484D02*
X9102086Y-12452150D01*
X9102086Y-12471198D02*
X9111610Y-12461674D01*
X9111610Y-12461674D02*
X9130658Y-12452150D01*
X9130658Y-12452150D02*
X9159229Y-12452150D01*
X9159229Y-12452150D02*
X9178277Y-12461674D01*
X9178277Y-12461674D02*
X9187801Y-12480722D01*
X9187801Y-12480722D02*
X9187801Y-12585484D01*
X9187801Y-12480722D02*
X9197325Y-12461674D01*
X9197325Y-12461674D02*
X9216372Y-12452150D01*
X9216372Y-12452150D02*
X9244944Y-12452150D01*
X9244944Y-12452150D02*
X9263991Y-12461674D01*
X9263991Y-12461674D02*
X9273515Y-12480722D01*
X9273515Y-12480722D02*
X9273515Y-12585484D01*
X9663991Y-12375960D02*
X9492563Y-12633103D01*
X9921134Y-12385484D02*
X9940182Y-12385484D01*
X9940182Y-12385484D02*
X9959229Y-12395008D01*
X9959229Y-12395008D02*
X9968753Y-12404531D01*
X9968753Y-12404531D02*
X9978277Y-12423579D01*
X9978277Y-12423579D02*
X9987801Y-12461674D01*
X9987801Y-12461674D02*
X9987801Y-12509293D01*
X9987801Y-12509293D02*
X9978277Y-12547388D01*
X9978277Y-12547388D02*
X9968753Y-12566436D01*
X9968753Y-12566436D02*
X9959229Y-12575960D01*
X9959229Y-12575960D02*
X9940182Y-12585484D01*
X9940182Y-12585484D02*
X9921134Y-12585484D01*
X9921134Y-12585484D02*
X9902087Y-12575960D01*
X9902087Y-12575960D02*
X9892563Y-12566436D01*
X9892563Y-12566436D02*
X9883039Y-12547388D01*
X9883039Y-12547388D02*
X9873515Y-12509293D01*
X9873515Y-12509293D02*
X9873515Y-12461674D01*
X9873515Y-12461674D02*
X9883039Y-12423579D01*
X9883039Y-12423579D02*
X9892563Y-12404531D01*
X9892563Y-12404531D02*
X9902087Y-12395008D01*
X9902087Y-12395008D02*
X9921134Y-12385484D01*
X10073515Y-12566436D02*
X10083039Y-12575960D01*
X10083039Y-12575960D02*
X10073515Y-12585484D01*
X10073515Y-12585484D02*
X10063991Y-12575960D01*
X10063991Y-12575960D02*
X10073515Y-12566436D01*
X10073515Y-12566436D02*
X10073515Y-12585484D01*
X10206848Y-12385484D02*
X10225896Y-12385484D01*
X10225896Y-12385484D02*
X10244944Y-12395008D01*
X10244944Y-12395008D02*
X10254468Y-12404531D01*
X10254468Y-12404531D02*
X10263991Y-12423579D01*
X10263991Y-12423579D02*
X10273515Y-12461674D01*
X10273515Y-12461674D02*
X10273515Y-12509293D01*
X10273515Y-12509293D02*
X10263991Y-12547388D01*
X10263991Y-12547388D02*
X10254468Y-12566436D01*
X10254468Y-12566436D02*
X10244944Y-12575960D01*
X10244944Y-12575960D02*
X10225896Y-12585484D01*
X10225896Y-12585484D02*
X10206848Y-12585484D01*
X10206848Y-12585484D02*
X10187801Y-12575960D01*
X10187801Y-12575960D02*
X10178277Y-12566436D01*
X10178277Y-12566436D02*
X10168753Y-12547388D01*
X10168753Y-12547388D02*
X10159229Y-12509293D01*
X10159229Y-12509293D02*
X10159229Y-12461674D01*
X10159229Y-12461674D02*
X10168753Y-12423579D01*
X10168753Y-12423579D02*
X10178277Y-12404531D01*
X10178277Y-12404531D02*
X10187801Y-12395008D01*
X10187801Y-12395008D02*
X10206848Y-12385484D01*
X10340182Y-12385484D02*
X10463991Y-12385484D01*
X10463991Y-12385484D02*
X10397325Y-12461674D01*
X10397325Y-12461674D02*
X10425896Y-12461674D01*
X10425896Y-12461674D02*
X10444944Y-12471198D01*
X10444944Y-12471198D02*
X10454468Y-12480722D01*
X10454468Y-12480722D02*
X10463991Y-12499769D01*
X10463991Y-12499769D02*
X10463991Y-12547388D01*
X10463991Y-12547388D02*
X10454468Y-12566436D01*
X10454468Y-12566436D02*
X10444944Y-12575960D01*
X10444944Y-12575960D02*
X10425896Y-12585484D01*
X10425896Y-12585484D02*
X10368753Y-12585484D01*
X10368753Y-12585484D02*
X10349706Y-12575960D01*
X10349706Y-12575960D02*
X10340182Y-12566436D01*
X10654468Y-12585484D02*
X10540182Y-12585484D01*
X10597325Y-12585484D02*
X10597325Y-12385484D01*
X10597325Y-12385484D02*
X10578277Y-12414055D01*
X10578277Y-12414055D02*
X10559229Y-12433103D01*
X10559229Y-12433103D02*
X10540182Y-12442627D01*
X10835420Y-12385484D02*
X10740182Y-12385484D01*
X10740182Y-12385484D02*
X10730658Y-12480722D01*
X10730658Y-12480722D02*
X10740182Y-12471198D01*
X10740182Y-12471198D02*
X10759229Y-12461674D01*
X10759229Y-12461674D02*
X10806849Y-12461674D01*
X10806849Y-12461674D02*
X10825896Y-12471198D01*
X10825896Y-12471198D02*
X10835420Y-12480722D01*
X10835420Y-12480722D02*
X10844944Y-12499769D01*
X10844944Y-12499769D02*
X10844944Y-12547388D01*
X10844944Y-12547388D02*
X10835420Y-12566436D01*
X10835420Y-12566436D02*
X10825896Y-12575960D01*
X10825896Y-12575960D02*
X10806849Y-12585484D01*
X10806849Y-12585484D02*
X10759229Y-12585484D01*
X10759229Y-12585484D02*
X10740182Y-12575960D01*
X10740182Y-12575960D02*
X10730658Y-12566436D01*
X10921134Y-12385484D02*
X10921134Y-12423579D01*
X10997325Y-12385484D02*
X10997325Y-12423579D01*
X11292563Y-12661674D02*
X11283039Y-12652150D01*
X11283039Y-12652150D02*
X11263991Y-12623579D01*
X11263991Y-12623579D02*
X11254468Y-12604531D01*
X11254468Y-12604531D02*
X11244944Y-12575960D01*
X11244944Y-12575960D02*
X11235420Y-12528341D01*
X11235420Y-12528341D02*
X11235420Y-12490246D01*
X11235420Y-12490246D02*
X11244944Y-12442627D01*
X11244944Y-12442627D02*
X11254468Y-12414055D01*
X11254468Y-12414055D02*
X11263991Y-12395008D01*
X11263991Y-12395008D02*
X11283039Y-12366436D01*
X11283039Y-12366436D02*
X11292563Y-12356912D01*
X11473515Y-12585484D02*
X11359229Y-12585484D01*
X11416372Y-12585484D02*
X11416372Y-12385484D01*
X11416372Y-12385484D02*
X11397325Y-12414055D01*
X11397325Y-12414055D02*
X11378277Y-12433103D01*
X11378277Y-12433103D02*
X11359229Y-12442627D01*
X11644944Y-12385484D02*
X11606848Y-12385484D01*
X11606848Y-12385484D02*
X11587801Y-12395008D01*
X11587801Y-12395008D02*
X11578277Y-12404531D01*
X11578277Y-12404531D02*
X11559229Y-12433103D01*
X11559229Y-12433103D02*
X11549706Y-12471198D01*
X11549706Y-12471198D02*
X11549706Y-12547388D01*
X11549706Y-12547388D02*
X11559229Y-12566436D01*
X11559229Y-12566436D02*
X11568753Y-12575960D01*
X11568753Y-12575960D02*
X11587801Y-12585484D01*
X11587801Y-12585484D02*
X11625896Y-12585484D01*
X11625896Y-12585484D02*
X11644944Y-12575960D01*
X11644944Y-12575960D02*
X11654468Y-12566436D01*
X11654468Y-12566436D02*
X11663991Y-12547388D01*
X11663991Y-12547388D02*
X11663991Y-12499769D01*
X11663991Y-12499769D02*
X11654468Y-12480722D01*
X11654468Y-12480722D02*
X11644944Y-12471198D01*
X11644944Y-12471198D02*
X11625896Y-12461674D01*
X11625896Y-12461674D02*
X11587801Y-12461674D01*
X11587801Y-12461674D02*
X11568753Y-12471198D01*
X11568753Y-12471198D02*
X11559229Y-12480722D01*
X11559229Y-12480722D02*
X11549706Y-12499769D01*
X11902087Y-12585484D02*
X11902087Y-12385484D01*
X11987801Y-12585484D02*
X11987801Y-12480722D01*
X11987801Y-12480722D02*
X11978277Y-12461674D01*
X11978277Y-12461674D02*
X11959230Y-12452150D01*
X11959230Y-12452150D02*
X11930658Y-12452150D01*
X11930658Y-12452150D02*
X11911610Y-12461674D01*
X11911610Y-12461674D02*
X11902087Y-12471198D01*
X12111610Y-12585484D02*
X12092563Y-12575960D01*
X12092563Y-12575960D02*
X12083039Y-12566436D01*
X12083039Y-12566436D02*
X12073515Y-12547388D01*
X12073515Y-12547388D02*
X12073515Y-12490246D01*
X12073515Y-12490246D02*
X12083039Y-12471198D01*
X12083039Y-12471198D02*
X12092563Y-12461674D01*
X12092563Y-12461674D02*
X12111610Y-12452150D01*
X12111610Y-12452150D02*
X12140182Y-12452150D01*
X12140182Y-12452150D02*
X12159230Y-12461674D01*
X12159230Y-12461674D02*
X12168753Y-12471198D01*
X12168753Y-12471198D02*
X12178277Y-12490246D01*
X12178277Y-12490246D02*
X12178277Y-12547388D01*
X12178277Y-12547388D02*
X12168753Y-12566436D01*
X12168753Y-12566436D02*
X12159230Y-12575960D01*
X12159230Y-12575960D02*
X12140182Y-12585484D01*
X12140182Y-12585484D02*
X12111610Y-12585484D01*
X12292563Y-12585484D02*
X12273515Y-12575960D01*
X12273515Y-12575960D02*
X12263991Y-12556912D01*
X12263991Y-12556912D02*
X12263991Y-12385484D01*
X12444944Y-12575960D02*
X12425896Y-12585484D01*
X12425896Y-12585484D02*
X12387801Y-12585484D01*
X12387801Y-12585484D02*
X12368753Y-12575960D01*
X12368753Y-12575960D02*
X12359230Y-12556912D01*
X12359230Y-12556912D02*
X12359230Y-12480722D01*
X12359230Y-12480722D02*
X12368753Y-12461674D01*
X12368753Y-12461674D02*
X12387801Y-12452150D01*
X12387801Y-12452150D02*
X12425896Y-12452150D01*
X12425896Y-12452150D02*
X12444944Y-12461674D01*
X12444944Y-12461674D02*
X12454468Y-12480722D01*
X12454468Y-12480722D02*
X12454468Y-12499769D01*
X12454468Y-12499769D02*
X12359230Y-12518817D01*
X12530658Y-12575960D02*
X12549706Y-12585484D01*
X12549706Y-12585484D02*
X12587801Y-12585484D01*
X12587801Y-12585484D02*
X12606849Y-12575960D01*
X12606849Y-12575960D02*
X12616372Y-12556912D01*
X12616372Y-12556912D02*
X12616372Y-12547388D01*
X12616372Y-12547388D02*
X12606849Y-12528341D01*
X12606849Y-12528341D02*
X12587801Y-12518817D01*
X12587801Y-12518817D02*
X12559230Y-12518817D01*
X12559230Y-12518817D02*
X12540182Y-12509293D01*
X12540182Y-12509293D02*
X12530658Y-12490246D01*
X12530658Y-12490246D02*
X12530658Y-12480722D01*
X12530658Y-12480722D02*
X12540182Y-12461674D01*
X12540182Y-12461674D02*
X12559230Y-12452150D01*
X12559230Y-12452150D02*
X12587801Y-12452150D01*
X12587801Y-12452150D02*
X12606849Y-12461674D01*
X12683039Y-12661674D02*
X12692563Y-12652150D01*
X12692563Y-12652150D02*
X12711611Y-12623579D01*
X12711611Y-12623579D02*
X12721134Y-12604531D01*
X12721134Y-12604531D02*
X12730658Y-12575960D01*
X12730658Y-12575960D02*
X12740182Y-12528341D01*
X12740182Y-12528341D02*
X12740182Y-12490246D01*
X12740182Y-12490246D02*
X12730658Y-12442627D01*
X12730658Y-12442627D02*
X12721134Y-12414055D01*
X12721134Y-12414055D02*
X12711611Y-12395008D01*
X12711611Y-12395008D02*
X12692563Y-12366436D01*
X12692563Y-12366436D02*
X12683039Y-12356912D01*
D10*
X7667500Y-12708000D02*
X7667500Y-12808000D01*
X7617500Y-12758000D02*
X7717500Y-12758000D01*
D11*
X8083039Y-12849484D02*
X7968753Y-12849484D01*
X8025896Y-12849484D02*
X8025896Y-12649484D01*
X8025896Y-12649484D02*
X8006848Y-12678055D01*
X8006848Y-12678055D02*
X7987801Y-12697103D01*
X7987801Y-12697103D02*
X7968753Y-12706627D01*
X8168753Y-12830436D02*
X8178277Y-12839960D01*
X8178277Y-12839960D02*
X8168753Y-12849484D01*
X8168753Y-12849484D02*
X8159229Y-12839960D01*
X8159229Y-12839960D02*
X8168753Y-12830436D01*
X8168753Y-12830436D02*
X8168753Y-12849484D01*
X8302086Y-12649484D02*
X8321134Y-12649484D01*
X8321134Y-12649484D02*
X8340182Y-12659008D01*
X8340182Y-12659008D02*
X8349705Y-12668531D01*
X8349705Y-12668531D02*
X8359229Y-12687579D01*
X8359229Y-12687579D02*
X8368753Y-12725674D01*
X8368753Y-12725674D02*
X8368753Y-12773293D01*
X8368753Y-12773293D02*
X8359229Y-12811388D01*
X8359229Y-12811388D02*
X8349705Y-12830436D01*
X8349705Y-12830436D02*
X8340182Y-12839960D01*
X8340182Y-12839960D02*
X8321134Y-12849484D01*
X8321134Y-12849484D02*
X8302086Y-12849484D01*
X8302086Y-12849484D02*
X8283039Y-12839960D01*
X8283039Y-12839960D02*
X8273515Y-12830436D01*
X8273515Y-12830436D02*
X8263991Y-12811388D01*
X8263991Y-12811388D02*
X8254467Y-12773293D01*
X8254467Y-12773293D02*
X8254467Y-12725674D01*
X8254467Y-12725674D02*
X8263991Y-12687579D01*
X8263991Y-12687579D02*
X8273515Y-12668531D01*
X8273515Y-12668531D02*
X8283039Y-12659008D01*
X8283039Y-12659008D02*
X8302086Y-12649484D01*
X8492563Y-12649484D02*
X8511610Y-12649484D01*
X8511610Y-12649484D02*
X8530658Y-12659008D01*
X8530658Y-12659008D02*
X8540182Y-12668531D01*
X8540182Y-12668531D02*
X8549705Y-12687579D01*
X8549705Y-12687579D02*
X8559229Y-12725674D01*
X8559229Y-12725674D02*
X8559229Y-12773293D01*
X8559229Y-12773293D02*
X8549705Y-12811388D01*
X8549705Y-12811388D02*
X8540182Y-12830436D01*
X8540182Y-12830436D02*
X8530658Y-12839960D01*
X8530658Y-12839960D02*
X8511610Y-12849484D01*
X8511610Y-12849484D02*
X8492563Y-12849484D01*
X8492563Y-12849484D02*
X8473515Y-12839960D01*
X8473515Y-12839960D02*
X8463991Y-12830436D01*
X8463991Y-12830436D02*
X8454467Y-12811388D01*
X8454467Y-12811388D02*
X8444944Y-12773293D01*
X8444944Y-12773293D02*
X8444944Y-12725674D01*
X8444944Y-12725674D02*
X8454467Y-12687579D01*
X8454467Y-12687579D02*
X8463991Y-12668531D01*
X8463991Y-12668531D02*
X8473515Y-12659008D01*
X8473515Y-12659008D02*
X8492563Y-12649484D01*
X8683039Y-12649484D02*
X8702086Y-12649484D01*
X8702086Y-12649484D02*
X8721134Y-12659008D01*
X8721134Y-12659008D02*
X8730658Y-12668531D01*
X8730658Y-12668531D02*
X8740182Y-12687579D01*
X8740182Y-12687579D02*
X8749705Y-12725674D01*
X8749705Y-12725674D02*
X8749705Y-12773293D01*
X8749705Y-12773293D02*
X8740182Y-12811388D01*
X8740182Y-12811388D02*
X8730658Y-12830436D01*
X8730658Y-12830436D02*
X8721134Y-12839960D01*
X8721134Y-12839960D02*
X8702086Y-12849484D01*
X8702086Y-12849484D02*
X8683039Y-12849484D01*
X8683039Y-12849484D02*
X8663991Y-12839960D01*
X8663991Y-12839960D02*
X8654467Y-12830436D01*
X8654467Y-12830436D02*
X8644944Y-12811388D01*
X8644944Y-12811388D02*
X8635420Y-12773293D01*
X8635420Y-12773293D02*
X8635420Y-12725674D01*
X8635420Y-12725674D02*
X8644944Y-12687579D01*
X8644944Y-12687579D02*
X8654467Y-12668531D01*
X8654467Y-12668531D02*
X8663991Y-12659008D01*
X8663991Y-12659008D02*
X8683039Y-12649484D01*
X8835420Y-12849484D02*
X8835420Y-12716150D01*
X8835420Y-12735198D02*
X8844944Y-12725674D01*
X8844944Y-12725674D02*
X8863991Y-12716150D01*
X8863991Y-12716150D02*
X8892563Y-12716150D01*
X8892563Y-12716150D02*
X8911610Y-12725674D01*
X8911610Y-12725674D02*
X8921134Y-12744722D01*
X8921134Y-12744722D02*
X8921134Y-12849484D01*
X8921134Y-12744722D02*
X8930658Y-12725674D01*
X8930658Y-12725674D02*
X8949705Y-12716150D01*
X8949705Y-12716150D02*
X8978277Y-12716150D01*
X8978277Y-12716150D02*
X8997325Y-12725674D01*
X8997325Y-12725674D02*
X9006848Y-12744722D01*
X9006848Y-12744722D02*
X9006848Y-12849484D01*
X9102086Y-12849484D02*
X9102086Y-12716150D01*
X9102086Y-12735198D02*
X9111610Y-12725674D01*
X9111610Y-12725674D02*
X9130658Y-12716150D01*
X9130658Y-12716150D02*
X9159229Y-12716150D01*
X9159229Y-12716150D02*
X9178277Y-12725674D01*
X9178277Y-12725674D02*
X9187801Y-12744722D01*
X9187801Y-12744722D02*
X9187801Y-12849484D01*
X9187801Y-12744722D02*
X9197325Y-12725674D01*
X9197325Y-12725674D02*
X9216372Y-12716150D01*
X9216372Y-12716150D02*
X9244944Y-12716150D01*
X9244944Y-12716150D02*
X9263991Y-12725674D01*
X9263991Y-12725674D02*
X9273515Y-12744722D01*
X9273515Y-12744722D02*
X9273515Y-12849484D01*
X9663991Y-12639960D02*
X9492563Y-12897103D01*
X9921134Y-12649484D02*
X9940182Y-12649484D01*
X9940182Y-12649484D02*
X9959229Y-12659008D01*
X9959229Y-12659008D02*
X9968753Y-12668531D01*
X9968753Y-12668531D02*
X9978277Y-12687579D01*
X9978277Y-12687579D02*
X9987801Y-12725674D01*
X9987801Y-12725674D02*
X9987801Y-12773293D01*
X9987801Y-12773293D02*
X9978277Y-12811388D01*
X9978277Y-12811388D02*
X9968753Y-12830436D01*
X9968753Y-12830436D02*
X9959229Y-12839960D01*
X9959229Y-12839960D02*
X9940182Y-12849484D01*
X9940182Y-12849484D02*
X9921134Y-12849484D01*
X9921134Y-12849484D02*
X9902087Y-12839960D01*
X9902087Y-12839960D02*
X9892563Y-12830436D01*
X9892563Y-12830436D02*
X9883039Y-12811388D01*
X9883039Y-12811388D02*
X9873515Y-12773293D01*
X9873515Y-12773293D02*
X9873515Y-12725674D01*
X9873515Y-12725674D02*
X9883039Y-12687579D01*
X9883039Y-12687579D02*
X9892563Y-12668531D01*
X9892563Y-12668531D02*
X9902087Y-12659008D01*
X9902087Y-12659008D02*
X9921134Y-12649484D01*
X10073515Y-12830436D02*
X10083039Y-12839960D01*
X10083039Y-12839960D02*
X10073515Y-12849484D01*
X10073515Y-12849484D02*
X10063991Y-12839960D01*
X10063991Y-12839960D02*
X10073515Y-12830436D01*
X10073515Y-12830436D02*
X10073515Y-12849484D01*
X10206848Y-12649484D02*
X10225896Y-12649484D01*
X10225896Y-12649484D02*
X10244944Y-12659008D01*
X10244944Y-12659008D02*
X10254468Y-12668531D01*
X10254468Y-12668531D02*
X10263991Y-12687579D01*
X10263991Y-12687579D02*
X10273515Y-12725674D01*
X10273515Y-12725674D02*
X10273515Y-12773293D01*
X10273515Y-12773293D02*
X10263991Y-12811388D01*
X10263991Y-12811388D02*
X10254468Y-12830436D01*
X10254468Y-12830436D02*
X10244944Y-12839960D01*
X10244944Y-12839960D02*
X10225896Y-12849484D01*
X10225896Y-12849484D02*
X10206848Y-12849484D01*
X10206848Y-12849484D02*
X10187801Y-12839960D01*
X10187801Y-12839960D02*
X10178277Y-12830436D01*
X10178277Y-12830436D02*
X10168753Y-12811388D01*
X10168753Y-12811388D02*
X10159229Y-12773293D01*
X10159229Y-12773293D02*
X10159229Y-12725674D01*
X10159229Y-12725674D02*
X10168753Y-12687579D01*
X10168753Y-12687579D02*
X10178277Y-12668531D01*
X10178277Y-12668531D02*
X10187801Y-12659008D01*
X10187801Y-12659008D02*
X10206848Y-12649484D01*
X10340182Y-12649484D02*
X10463991Y-12649484D01*
X10463991Y-12649484D02*
X10397325Y-12725674D01*
X10397325Y-12725674D02*
X10425896Y-12725674D01*
X10425896Y-12725674D02*
X10444944Y-12735198D01*
X10444944Y-12735198D02*
X10454468Y-12744722D01*
X10454468Y-12744722D02*
X10463991Y-12763769D01*
X10463991Y-12763769D02*
X10463991Y-12811388D01*
X10463991Y-12811388D02*
X10454468Y-12830436D01*
X10454468Y-12830436D02*
X10444944Y-12839960D01*
X10444944Y-12839960D02*
X10425896Y-12849484D01*
X10425896Y-12849484D02*
X10368753Y-12849484D01*
X10368753Y-12849484D02*
X10349706Y-12839960D01*
X10349706Y-12839960D02*
X10340182Y-12830436D01*
X10559229Y-12849484D02*
X10597325Y-12849484D01*
X10597325Y-12849484D02*
X10616372Y-12839960D01*
X10616372Y-12839960D02*
X10625896Y-12830436D01*
X10625896Y-12830436D02*
X10644944Y-12801865D01*
X10644944Y-12801865D02*
X10654468Y-12763769D01*
X10654468Y-12763769D02*
X10654468Y-12687579D01*
X10654468Y-12687579D02*
X10644944Y-12668531D01*
X10644944Y-12668531D02*
X10635420Y-12659008D01*
X10635420Y-12659008D02*
X10616372Y-12649484D01*
X10616372Y-12649484D02*
X10578277Y-12649484D01*
X10578277Y-12649484D02*
X10559229Y-12659008D01*
X10559229Y-12659008D02*
X10549706Y-12668531D01*
X10549706Y-12668531D02*
X10540182Y-12687579D01*
X10540182Y-12687579D02*
X10540182Y-12735198D01*
X10540182Y-12735198D02*
X10549706Y-12754246D01*
X10549706Y-12754246D02*
X10559229Y-12763769D01*
X10559229Y-12763769D02*
X10578277Y-12773293D01*
X10578277Y-12773293D02*
X10616372Y-12773293D01*
X10616372Y-12773293D02*
X10635420Y-12763769D01*
X10635420Y-12763769D02*
X10644944Y-12754246D01*
X10644944Y-12754246D02*
X10654468Y-12735198D01*
X10825896Y-12716150D02*
X10825896Y-12849484D01*
X10778277Y-12639960D02*
X10730658Y-12782817D01*
X10730658Y-12782817D02*
X10854468Y-12782817D01*
X10921134Y-12649484D02*
X10921134Y-12687579D01*
X10997325Y-12649484D02*
X10997325Y-12687579D01*
X11292563Y-12925674D02*
X11283039Y-12916150D01*
X11283039Y-12916150D02*
X11263991Y-12887579D01*
X11263991Y-12887579D02*
X11254468Y-12868531D01*
X11254468Y-12868531D02*
X11244944Y-12839960D01*
X11244944Y-12839960D02*
X11235420Y-12792341D01*
X11235420Y-12792341D02*
X11235420Y-12754246D01*
X11235420Y-12754246D02*
X11244944Y-12706627D01*
X11244944Y-12706627D02*
X11254468Y-12678055D01*
X11254468Y-12678055D02*
X11263991Y-12659008D01*
X11263991Y-12659008D02*
X11283039Y-12630436D01*
X11283039Y-12630436D02*
X11292563Y-12620912D01*
X11473515Y-12849484D02*
X11359229Y-12849484D01*
X11416372Y-12849484D02*
X11416372Y-12649484D01*
X11416372Y-12649484D02*
X11397325Y-12678055D01*
X11397325Y-12678055D02*
X11378277Y-12697103D01*
X11378277Y-12697103D02*
X11359229Y-12706627D01*
X11597325Y-12649484D02*
X11616372Y-12649484D01*
X11616372Y-12649484D02*
X11635420Y-12659008D01*
X11635420Y-12659008D02*
X11644944Y-12668531D01*
X11644944Y-12668531D02*
X11654468Y-12687579D01*
X11654468Y-12687579D02*
X11663991Y-12725674D01*
X11663991Y-12725674D02*
X11663991Y-12773293D01*
X11663991Y-12773293D02*
X11654468Y-12811388D01*
X11654468Y-12811388D02*
X11644944Y-12830436D01*
X11644944Y-12830436D02*
X11635420Y-12839960D01*
X11635420Y-12839960D02*
X11616372Y-12849484D01*
X11616372Y-12849484D02*
X11597325Y-12849484D01*
X11597325Y-12849484D02*
X11578277Y-12839960D01*
X11578277Y-12839960D02*
X11568753Y-12830436D01*
X11568753Y-12830436D02*
X11559229Y-12811388D01*
X11559229Y-12811388D02*
X11549706Y-12773293D01*
X11549706Y-12773293D02*
X11549706Y-12725674D01*
X11549706Y-12725674D02*
X11559229Y-12687579D01*
X11559229Y-12687579D02*
X11568753Y-12668531D01*
X11568753Y-12668531D02*
X11578277Y-12659008D01*
X11578277Y-12659008D02*
X11597325Y-12649484D01*
X11902087Y-12849484D02*
X11902087Y-12649484D01*
X11987801Y-12849484D02*
X11987801Y-12744722D01*
X11987801Y-12744722D02*
X11978277Y-12725674D01*
X11978277Y-12725674D02*
X11959230Y-12716150D01*
X11959230Y-12716150D02*
X11930658Y-12716150D01*
X11930658Y-12716150D02*
X11911610Y-12725674D01*
X11911610Y-12725674D02*
X11902087Y-12735198D01*
X12111610Y-12849484D02*
X12092563Y-12839960D01*
X12092563Y-12839960D02*
X12083039Y-12830436D01*
X12083039Y-12830436D02*
X12073515Y-12811388D01*
X12073515Y-12811388D02*
X12073515Y-12754246D01*
X12073515Y-12754246D02*
X12083039Y-12735198D01*
X12083039Y-12735198D02*
X12092563Y-12725674D01*
X12092563Y-12725674D02*
X12111610Y-12716150D01*
X12111610Y-12716150D02*
X12140182Y-12716150D01*
X12140182Y-12716150D02*
X12159230Y-12725674D01*
X12159230Y-12725674D02*
X12168753Y-12735198D01*
X12168753Y-12735198D02*
X12178277Y-12754246D01*
X12178277Y-12754246D02*
X12178277Y-12811388D01*
X12178277Y-12811388D02*
X12168753Y-12830436D01*
X12168753Y-12830436D02*
X12159230Y-12839960D01*
X12159230Y-12839960D02*
X12140182Y-12849484D01*
X12140182Y-12849484D02*
X12111610Y-12849484D01*
X12292563Y-12849484D02*
X12273515Y-12839960D01*
X12273515Y-12839960D02*
X12263991Y-12820912D01*
X12263991Y-12820912D02*
X12263991Y-12649484D01*
X12444944Y-12839960D02*
X12425896Y-12849484D01*
X12425896Y-12849484D02*
X12387801Y-12849484D01*
X12387801Y-12849484D02*
X12368753Y-12839960D01*
X12368753Y-12839960D02*
X12359230Y-12820912D01*
X12359230Y-12820912D02*
X12359230Y-12744722D01*
X12359230Y-12744722D02*
X12368753Y-12725674D01*
X12368753Y-12725674D02*
X12387801Y-12716150D01*
X12387801Y-12716150D02*
X12425896Y-12716150D01*
X12425896Y-12716150D02*
X12444944Y-12725674D01*
X12444944Y-12725674D02*
X12454468Y-12744722D01*
X12454468Y-12744722D02*
X12454468Y-12763769D01*
X12454468Y-12763769D02*
X12359230Y-12782817D01*
X12530658Y-12839960D02*
X12549706Y-12849484D01*
X12549706Y-12849484D02*
X12587801Y-12849484D01*
X12587801Y-12849484D02*
X12606849Y-12839960D01*
X12606849Y-12839960D02*
X12616372Y-12820912D01*
X12616372Y-12820912D02*
X12616372Y-12811388D01*
X12616372Y-12811388D02*
X12606849Y-12792341D01*
X12606849Y-12792341D02*
X12587801Y-12782817D01*
X12587801Y-12782817D02*
X12559230Y-12782817D01*
X12559230Y-12782817D02*
X12540182Y-12773293D01*
X12540182Y-12773293D02*
X12530658Y-12754246D01*
X12530658Y-12754246D02*
X12530658Y-12744722D01*
X12530658Y-12744722D02*
X12540182Y-12725674D01*
X12540182Y-12725674D02*
X12559230Y-12716150D01*
X12559230Y-12716150D02*
X12587801Y-12716150D01*
X12587801Y-12716150D02*
X12606849Y-12725674D01*
X12683039Y-12925674D02*
X12692563Y-12916150D01*
X12692563Y-12916150D02*
X12711611Y-12887579D01*
X12711611Y-12887579D02*
X12721134Y-12868531D01*
X12721134Y-12868531D02*
X12730658Y-12839960D01*
X12730658Y-12839960D02*
X12740182Y-12792341D01*
X12740182Y-12792341D02*
X12740182Y-12754246D01*
X12740182Y-12754246D02*
X12730658Y-12706627D01*
X12730658Y-12706627D02*
X12721134Y-12678055D01*
X12721134Y-12678055D02*
X12711611Y-12659008D01*
X12711611Y-12659008D02*
X12692563Y-12630436D01*
X12692563Y-12630436D02*
X12683039Y-12620912D01*
D12*
X7695533Y-13075033D02*
X7695533Y-12968966D01*
X7589466Y-12968966D01*
X7589466Y-13075033D01*
X7695533Y-13075033D01*
D11*
X8083039Y-13113484D02*
X7968753Y-13113484D01*
X8025896Y-13113484D02*
X8025896Y-12913484D01*
X8025896Y-12913484D02*
X8006848Y-12942055D01*
X8006848Y-12942055D02*
X7987801Y-12961103D01*
X7987801Y-12961103D02*
X7968753Y-12970627D01*
X8168753Y-13094436D02*
X8178277Y-13103960D01*
X8178277Y-13103960D02*
X8168753Y-13113484D01*
X8168753Y-13113484D02*
X8159229Y-13103960D01*
X8159229Y-13103960D02*
X8168753Y-13094436D01*
X8168753Y-13094436D02*
X8168753Y-13113484D01*
X8359229Y-12913484D02*
X8263991Y-12913484D01*
X8263991Y-12913484D02*
X8254467Y-13008722D01*
X8254467Y-13008722D02*
X8263991Y-12999198D01*
X8263991Y-12999198D02*
X8283039Y-12989674D01*
X8283039Y-12989674D02*
X8330658Y-12989674D01*
X8330658Y-12989674D02*
X8349705Y-12999198D01*
X8349705Y-12999198D02*
X8359229Y-13008722D01*
X8359229Y-13008722D02*
X8368753Y-13027769D01*
X8368753Y-13027769D02*
X8368753Y-13075388D01*
X8368753Y-13075388D02*
X8359229Y-13094436D01*
X8359229Y-13094436D02*
X8349705Y-13103960D01*
X8349705Y-13103960D02*
X8330658Y-13113484D01*
X8330658Y-13113484D02*
X8283039Y-13113484D01*
X8283039Y-13113484D02*
X8263991Y-13103960D01*
X8263991Y-13103960D02*
X8254467Y-13094436D01*
X8492563Y-12913484D02*
X8511610Y-12913484D01*
X8511610Y-12913484D02*
X8530658Y-12923008D01*
X8530658Y-12923008D02*
X8540182Y-12932531D01*
X8540182Y-12932531D02*
X8549705Y-12951579D01*
X8549705Y-12951579D02*
X8559229Y-12989674D01*
X8559229Y-12989674D02*
X8559229Y-13037293D01*
X8559229Y-13037293D02*
X8549705Y-13075388D01*
X8549705Y-13075388D02*
X8540182Y-13094436D01*
X8540182Y-13094436D02*
X8530658Y-13103960D01*
X8530658Y-13103960D02*
X8511610Y-13113484D01*
X8511610Y-13113484D02*
X8492563Y-13113484D01*
X8492563Y-13113484D02*
X8473515Y-13103960D01*
X8473515Y-13103960D02*
X8463991Y-13094436D01*
X8463991Y-13094436D02*
X8454467Y-13075388D01*
X8454467Y-13075388D02*
X8444944Y-13037293D01*
X8444944Y-13037293D02*
X8444944Y-12989674D01*
X8444944Y-12989674D02*
X8454467Y-12951579D01*
X8454467Y-12951579D02*
X8463991Y-12932531D01*
X8463991Y-12932531D02*
X8473515Y-12923008D01*
X8473515Y-12923008D02*
X8492563Y-12913484D01*
X8683039Y-12913484D02*
X8702086Y-12913484D01*
X8702086Y-12913484D02*
X8721134Y-12923008D01*
X8721134Y-12923008D02*
X8730658Y-12932531D01*
X8730658Y-12932531D02*
X8740182Y-12951579D01*
X8740182Y-12951579D02*
X8749705Y-12989674D01*
X8749705Y-12989674D02*
X8749705Y-13037293D01*
X8749705Y-13037293D02*
X8740182Y-13075388D01*
X8740182Y-13075388D02*
X8730658Y-13094436D01*
X8730658Y-13094436D02*
X8721134Y-13103960D01*
X8721134Y-13103960D02*
X8702086Y-13113484D01*
X8702086Y-13113484D02*
X8683039Y-13113484D01*
X8683039Y-13113484D02*
X8663991Y-13103960D01*
X8663991Y-13103960D02*
X8654467Y-13094436D01*
X8654467Y-13094436D02*
X8644944Y-13075388D01*
X8644944Y-13075388D02*
X8635420Y-13037293D01*
X8635420Y-13037293D02*
X8635420Y-12989674D01*
X8635420Y-12989674D02*
X8644944Y-12951579D01*
X8644944Y-12951579D02*
X8654467Y-12932531D01*
X8654467Y-12932531D02*
X8663991Y-12923008D01*
X8663991Y-12923008D02*
X8683039Y-12913484D01*
X8835420Y-13113484D02*
X8835420Y-12980150D01*
X8835420Y-12999198D02*
X8844944Y-12989674D01*
X8844944Y-12989674D02*
X8863991Y-12980150D01*
X8863991Y-12980150D02*
X8892563Y-12980150D01*
X8892563Y-12980150D02*
X8911610Y-12989674D01*
X8911610Y-12989674D02*
X8921134Y-13008722D01*
X8921134Y-13008722D02*
X8921134Y-13113484D01*
X8921134Y-13008722D02*
X8930658Y-12989674D01*
X8930658Y-12989674D02*
X8949705Y-12980150D01*
X8949705Y-12980150D02*
X8978277Y-12980150D01*
X8978277Y-12980150D02*
X8997325Y-12989674D01*
X8997325Y-12989674D02*
X9006848Y-13008722D01*
X9006848Y-13008722D02*
X9006848Y-13113484D01*
X9102086Y-13113484D02*
X9102086Y-12980150D01*
X9102086Y-12999198D02*
X9111610Y-12989674D01*
X9111610Y-12989674D02*
X9130658Y-12980150D01*
X9130658Y-12980150D02*
X9159229Y-12980150D01*
X9159229Y-12980150D02*
X9178277Y-12989674D01*
X9178277Y-12989674D02*
X9187801Y-13008722D01*
X9187801Y-13008722D02*
X9187801Y-13113484D01*
X9187801Y-13008722D02*
X9197325Y-12989674D01*
X9197325Y-12989674D02*
X9216372Y-12980150D01*
X9216372Y-12980150D02*
X9244944Y-12980150D01*
X9244944Y-12980150D02*
X9263991Y-12989674D01*
X9263991Y-12989674D02*
X9273515Y-13008722D01*
X9273515Y-13008722D02*
X9273515Y-13113484D01*
X9663991Y-12903960D02*
X9492563Y-13161103D01*
X9921134Y-12913484D02*
X9940182Y-12913484D01*
X9940182Y-12913484D02*
X9959229Y-12923008D01*
X9959229Y-12923008D02*
X9968753Y-12932531D01*
X9968753Y-12932531D02*
X9978277Y-12951579D01*
X9978277Y-12951579D02*
X9987801Y-12989674D01*
X9987801Y-12989674D02*
X9987801Y-13037293D01*
X9987801Y-13037293D02*
X9978277Y-13075388D01*
X9978277Y-13075388D02*
X9968753Y-13094436D01*
X9968753Y-13094436D02*
X9959229Y-13103960D01*
X9959229Y-13103960D02*
X9940182Y-13113484D01*
X9940182Y-13113484D02*
X9921134Y-13113484D01*
X9921134Y-13113484D02*
X9902087Y-13103960D01*
X9902087Y-13103960D02*
X9892563Y-13094436D01*
X9892563Y-13094436D02*
X9883039Y-13075388D01*
X9883039Y-13075388D02*
X9873515Y-13037293D01*
X9873515Y-13037293D02*
X9873515Y-12989674D01*
X9873515Y-12989674D02*
X9883039Y-12951579D01*
X9883039Y-12951579D02*
X9892563Y-12932531D01*
X9892563Y-12932531D02*
X9902087Y-12923008D01*
X9902087Y-12923008D02*
X9921134Y-12913484D01*
X10073515Y-13094436D02*
X10083039Y-13103960D01*
X10083039Y-13103960D02*
X10073515Y-13113484D01*
X10073515Y-13113484D02*
X10063991Y-13103960D01*
X10063991Y-13103960D02*
X10073515Y-13094436D01*
X10073515Y-13094436D02*
X10073515Y-13113484D01*
X10206848Y-12913484D02*
X10225896Y-12913484D01*
X10225896Y-12913484D02*
X10244944Y-12923008D01*
X10244944Y-12923008D02*
X10254468Y-12932531D01*
X10254468Y-12932531D02*
X10263991Y-12951579D01*
X10263991Y-12951579D02*
X10273515Y-12989674D01*
X10273515Y-12989674D02*
X10273515Y-13037293D01*
X10273515Y-13037293D02*
X10263991Y-13075388D01*
X10263991Y-13075388D02*
X10254468Y-13094436D01*
X10254468Y-13094436D02*
X10244944Y-13103960D01*
X10244944Y-13103960D02*
X10225896Y-13113484D01*
X10225896Y-13113484D02*
X10206848Y-13113484D01*
X10206848Y-13113484D02*
X10187801Y-13103960D01*
X10187801Y-13103960D02*
X10178277Y-13094436D01*
X10178277Y-13094436D02*
X10168753Y-13075388D01*
X10168753Y-13075388D02*
X10159229Y-13037293D01*
X10159229Y-13037293D02*
X10159229Y-12989674D01*
X10159229Y-12989674D02*
X10168753Y-12951579D01*
X10168753Y-12951579D02*
X10178277Y-12932531D01*
X10178277Y-12932531D02*
X10187801Y-12923008D01*
X10187801Y-12923008D02*
X10206848Y-12913484D01*
X10454468Y-12913484D02*
X10359229Y-12913484D01*
X10359229Y-12913484D02*
X10349706Y-13008722D01*
X10349706Y-13008722D02*
X10359229Y-12999198D01*
X10359229Y-12999198D02*
X10378277Y-12989674D01*
X10378277Y-12989674D02*
X10425896Y-12989674D01*
X10425896Y-12989674D02*
X10444944Y-12999198D01*
X10444944Y-12999198D02*
X10454468Y-13008722D01*
X10454468Y-13008722D02*
X10463991Y-13027769D01*
X10463991Y-13027769D02*
X10463991Y-13075388D01*
X10463991Y-13075388D02*
X10454468Y-13094436D01*
X10454468Y-13094436D02*
X10444944Y-13103960D01*
X10444944Y-13103960D02*
X10425896Y-13113484D01*
X10425896Y-13113484D02*
X10378277Y-13113484D01*
X10378277Y-13113484D02*
X10359229Y-13103960D01*
X10359229Y-13103960D02*
X10349706Y-13094436D01*
X10559229Y-13113484D02*
X10597325Y-13113484D01*
X10597325Y-13113484D02*
X10616372Y-13103960D01*
X10616372Y-13103960D02*
X10625896Y-13094436D01*
X10625896Y-13094436D02*
X10644944Y-13065865D01*
X10644944Y-13065865D02*
X10654468Y-13027769D01*
X10654468Y-13027769D02*
X10654468Y-12951579D01*
X10654468Y-12951579D02*
X10644944Y-12932531D01*
X10644944Y-12932531D02*
X10635420Y-12923008D01*
X10635420Y-12923008D02*
X10616372Y-12913484D01*
X10616372Y-12913484D02*
X10578277Y-12913484D01*
X10578277Y-12913484D02*
X10559229Y-12923008D01*
X10559229Y-12923008D02*
X10549706Y-12932531D01*
X10549706Y-12932531D02*
X10540182Y-12951579D01*
X10540182Y-12951579D02*
X10540182Y-12999198D01*
X10540182Y-12999198D02*
X10549706Y-13018246D01*
X10549706Y-13018246D02*
X10559229Y-13027769D01*
X10559229Y-13027769D02*
X10578277Y-13037293D01*
X10578277Y-13037293D02*
X10616372Y-13037293D01*
X10616372Y-13037293D02*
X10635420Y-13027769D01*
X10635420Y-13027769D02*
X10644944Y-13018246D01*
X10644944Y-13018246D02*
X10654468Y-12999198D01*
X10844944Y-13113484D02*
X10730658Y-13113484D01*
X10787801Y-13113484D02*
X10787801Y-12913484D01*
X10787801Y-12913484D02*
X10768753Y-12942055D01*
X10768753Y-12942055D02*
X10749706Y-12961103D01*
X10749706Y-12961103D02*
X10730658Y-12970627D01*
X10921134Y-12913484D02*
X10921134Y-12951579D01*
X10997325Y-12913484D02*
X10997325Y-12951579D01*
X11292563Y-13189674D02*
X11283039Y-13180150D01*
X11283039Y-13180150D02*
X11263991Y-13151579D01*
X11263991Y-13151579D02*
X11254468Y-13132531D01*
X11254468Y-13132531D02*
X11244944Y-13103960D01*
X11244944Y-13103960D02*
X11235420Y-13056341D01*
X11235420Y-13056341D02*
X11235420Y-13018246D01*
X11235420Y-13018246D02*
X11244944Y-12970627D01*
X11244944Y-12970627D02*
X11254468Y-12942055D01*
X11254468Y-12942055D02*
X11263991Y-12923008D01*
X11263991Y-12923008D02*
X11283039Y-12894436D01*
X11283039Y-12894436D02*
X11292563Y-12884912D01*
X11473515Y-13113484D02*
X11359229Y-13113484D01*
X11416372Y-13113484D02*
X11416372Y-12913484D01*
X11416372Y-12913484D02*
X11397325Y-12942055D01*
X11397325Y-12942055D02*
X11378277Y-12961103D01*
X11378277Y-12961103D02*
X11359229Y-12970627D01*
X11549706Y-12932531D02*
X11559229Y-12923008D01*
X11559229Y-12923008D02*
X11578277Y-12913484D01*
X11578277Y-12913484D02*
X11625896Y-12913484D01*
X11625896Y-12913484D02*
X11644944Y-12923008D01*
X11644944Y-12923008D02*
X11654468Y-12932531D01*
X11654468Y-12932531D02*
X11663991Y-12951579D01*
X11663991Y-12951579D02*
X11663991Y-12970627D01*
X11663991Y-12970627D02*
X11654468Y-12999198D01*
X11654468Y-12999198D02*
X11540182Y-13113484D01*
X11540182Y-13113484D02*
X11663991Y-13113484D01*
X11902087Y-13113484D02*
X11902087Y-12913484D01*
X11987801Y-13113484D02*
X11987801Y-13008722D01*
X11987801Y-13008722D02*
X11978277Y-12989674D01*
X11978277Y-12989674D02*
X11959230Y-12980150D01*
X11959230Y-12980150D02*
X11930658Y-12980150D01*
X11930658Y-12980150D02*
X11911610Y-12989674D01*
X11911610Y-12989674D02*
X11902087Y-12999198D01*
X12111610Y-13113484D02*
X12092563Y-13103960D01*
X12092563Y-13103960D02*
X12083039Y-13094436D01*
X12083039Y-13094436D02*
X12073515Y-13075388D01*
X12073515Y-13075388D02*
X12073515Y-13018246D01*
X12073515Y-13018246D02*
X12083039Y-12999198D01*
X12083039Y-12999198D02*
X12092563Y-12989674D01*
X12092563Y-12989674D02*
X12111610Y-12980150D01*
X12111610Y-12980150D02*
X12140182Y-12980150D01*
X12140182Y-12980150D02*
X12159230Y-12989674D01*
X12159230Y-12989674D02*
X12168753Y-12999198D01*
X12168753Y-12999198D02*
X12178277Y-13018246D01*
X12178277Y-13018246D02*
X12178277Y-13075388D01*
X12178277Y-13075388D02*
X12168753Y-13094436D01*
X12168753Y-13094436D02*
X12159230Y-13103960D01*
X12159230Y-13103960D02*
X12140182Y-13113484D01*
X12140182Y-13113484D02*
X12111610Y-13113484D01*
X12292563Y-13113484D02*
X12273515Y-13103960D01*
X12273515Y-13103960D02*
X12263991Y-13084912D01*
X12263991Y-13084912D02*
X12263991Y-12913484D01*
X12444944Y-13103960D02*
X12425896Y-13113484D01*
X12425896Y-13113484D02*
X12387801Y-13113484D01*
X12387801Y-13113484D02*
X12368753Y-13103960D01*
X12368753Y-13103960D02*
X12359230Y-13084912D01*
X12359230Y-13084912D02*
X12359230Y-13008722D01*
X12359230Y-13008722D02*
X12368753Y-12989674D01*
X12368753Y-12989674D02*
X12387801Y-12980150D01*
X12387801Y-12980150D02*
X12425896Y-12980150D01*
X12425896Y-12980150D02*
X12444944Y-12989674D01*
X12444944Y-12989674D02*
X12454468Y-13008722D01*
X12454468Y-13008722D02*
X12454468Y-13027769D01*
X12454468Y-13027769D02*
X12359230Y-13046817D01*
X12530658Y-13103960D02*
X12549706Y-13113484D01*
X12549706Y-13113484D02*
X12587801Y-13113484D01*
X12587801Y-13113484D02*
X12606849Y-13103960D01*
X12606849Y-13103960D02*
X12616372Y-13084912D01*
X12616372Y-13084912D02*
X12616372Y-13075388D01*
X12616372Y-13075388D02*
X12606849Y-13056341D01*
X12606849Y-13056341D02*
X12587801Y-13046817D01*
X12587801Y-13046817D02*
X12559230Y-13046817D01*
X12559230Y-13046817D02*
X12540182Y-13037293D01*
X12540182Y-13037293D02*
X12530658Y-13018246D01*
X12530658Y-13018246D02*
X12530658Y-13008722D01*
X12530658Y-13008722D02*
X12540182Y-12989674D01*
X12540182Y-12989674D02*
X12559230Y-12980150D01*
X12559230Y-12980150D02*
X12587801Y-12980150D01*
X12587801Y-12980150D02*
X12606849Y-12989674D01*
X12854468Y-13037293D02*
X13006849Y-13037293D01*
X12930658Y-13113484D02*
X12930658Y-12961103D01*
X13340182Y-12980150D02*
X13340182Y-13113484D01*
X13292563Y-12903960D02*
X13244944Y-13046817D01*
X13244944Y-13046817D02*
X13368753Y-13046817D01*
X13587801Y-13103960D02*
X13606849Y-13113484D01*
X13606849Y-13113484D02*
X13644944Y-13113484D01*
X13644944Y-13113484D02*
X13663992Y-13103960D01*
X13663992Y-13103960D02*
X13673515Y-13084912D01*
X13673515Y-13084912D02*
X13673515Y-13075388D01*
X13673515Y-13075388D02*
X13663992Y-13056341D01*
X13663992Y-13056341D02*
X13644944Y-13046817D01*
X13644944Y-13046817D02*
X13616373Y-13046817D01*
X13616373Y-13046817D02*
X13597325Y-13037293D01*
X13597325Y-13037293D02*
X13587801Y-13018246D01*
X13587801Y-13018246D02*
X13587801Y-13008722D01*
X13587801Y-13008722D02*
X13597325Y-12989674D01*
X13597325Y-12989674D02*
X13616373Y-12980150D01*
X13616373Y-12980150D02*
X13644944Y-12980150D01*
X13644944Y-12980150D02*
X13663992Y-12989674D01*
X13787801Y-13113484D02*
X13768754Y-13103960D01*
X13768754Y-13103960D02*
X13759230Y-13084912D01*
X13759230Y-13084912D02*
X13759230Y-12913484D01*
X13892563Y-13113484D02*
X13873515Y-13103960D01*
X13873515Y-13103960D02*
X13863992Y-13094436D01*
X13863992Y-13094436D02*
X13854468Y-13075388D01*
X13854468Y-13075388D02*
X13854468Y-13018246D01*
X13854468Y-13018246D02*
X13863992Y-12999198D01*
X13863992Y-12999198D02*
X13873515Y-12989674D01*
X13873515Y-12989674D02*
X13892563Y-12980150D01*
X13892563Y-12980150D02*
X13921135Y-12980150D01*
X13921135Y-12980150D02*
X13940182Y-12989674D01*
X13940182Y-12989674D02*
X13949706Y-12999198D01*
X13949706Y-12999198D02*
X13959230Y-13018246D01*
X13959230Y-13018246D02*
X13959230Y-13075388D01*
X13959230Y-13075388D02*
X13949706Y-13094436D01*
X13949706Y-13094436D02*
X13940182Y-13103960D01*
X13940182Y-13103960D02*
X13921135Y-13113484D01*
X13921135Y-13113484D02*
X13892563Y-13113484D01*
X14016373Y-12980150D02*
X14092563Y-12980150D01*
X14044944Y-12913484D02*
X14044944Y-13084912D01*
X14044944Y-13084912D02*
X14054468Y-13103960D01*
X14054468Y-13103960D02*
X14073515Y-13113484D01*
X14073515Y-13113484D02*
X14092563Y-13113484D01*
X14149706Y-13103960D02*
X14168754Y-13113484D01*
X14168754Y-13113484D02*
X14206849Y-13113484D01*
X14206849Y-13113484D02*
X14225896Y-13103960D01*
X14225896Y-13103960D02*
X14235420Y-13084912D01*
X14235420Y-13084912D02*
X14235420Y-13075388D01*
X14235420Y-13075388D02*
X14225896Y-13056341D01*
X14225896Y-13056341D02*
X14206849Y-13046817D01*
X14206849Y-13046817D02*
X14178277Y-13046817D01*
X14178277Y-13046817D02*
X14159230Y-13037293D01*
X14159230Y-13037293D02*
X14149706Y-13018246D01*
X14149706Y-13018246D02*
X14149706Y-13008722D01*
X14149706Y-13008722D02*
X14159230Y-12989674D01*
X14159230Y-12989674D02*
X14178277Y-12980150D01*
X14178277Y-12980150D02*
X14206849Y-12980150D01*
X14206849Y-12980150D02*
X14225896Y-12989674D01*
X14302087Y-13189674D02*
X14311611Y-13180150D01*
X14311611Y-13180150D02*
X14330658Y-13151579D01*
X14330658Y-13151579D02*
X14340182Y-13132531D01*
X14340182Y-13132531D02*
X14349706Y-13103960D01*
X14349706Y-13103960D02*
X14359230Y-13056341D01*
X14359230Y-13056341D02*
X14359230Y-13018246D01*
X14359230Y-13018246D02*
X14349706Y-12970627D01*
X14349706Y-12970627D02*
X14340182Y-12942055D01*
X14340182Y-12942055D02*
X14330658Y-12923008D01*
X14330658Y-12923008D02*
X14311611Y-12894436D01*
X14311611Y-12894436D02*
X14302087Y-12884912D01*
M02*
